<svg xmlns="http://www.w3.org/2000/svg" width="79" height="96" fill="none"><path fill="#50AC97" d="M47.465 0c1.96.845 2.671 2.533 2.572 4.873-.075 1.695-.015 3.397-.015 5.115 3.079-.706 5.707 1.916 5.197 5.78a24.3 24.3 0 0 1 8.576 2.077c5.844 2.597 10.65 6.642 13.231 13.467 2.824 7.46 1.763 14.427-2.82 20.462-5.009 6.59-11.402 10.466-18.918 11.815-4.884.877-9.367-.181-13.275-3.785-3.741-3.45-5.733-8.107-6.387-13.497-.902-7.455.605-14.363 3.922-20.782.094-.183.175-.372.293-.617l-1.203-.91-3.69 5.104c-1.66 2.305-3.3 4.632-4.992 6.91-.51.676-.777 1.553-.744 2.45.015 16.23 0 32.468.026 48.686 0 2.913-.787 5.294-2.94 6.888-.683.496-1.5.763-2.257 1.135h-2.099c-1.404-.496-2.697-1.22-3.694-2.622-1.012 1.45-2.302 2.129-3.687 2.622h-2.086c-3.748-1.19-5.302-4.295-5.223-8.853.142-7.93.041-15.862.041-23.792v-1.061a1.959 1.959 0 0 0-.377.057C3.807 62.915.345 60.142.418 55.898c.103-5.973.017-11.95.028-17.929.014-3.3.92-6.514 2.593-9.189 1.672-2.675 4.026-4.68 6.732-5.73.614-.249 1.24-.422 1.93-.658-1.514-1.71-2.55-3.67-2.843-5.99a38.562 38.562 0 0 1-.197-5.366c.058-3.655 1.376-6.61 3.882-8.855C13.815 1.041 15.296.496 16.814 0h2.888c.138.078.281.142.429.193 3.584.964 6.069 3.423 7.229 7.465.842 2.932.669 5.986.25 8.992-.278 1.983-1.183 3.666-2.21 5.309a4.201 4.201 0 0 0 1.385-1.1 608.465 608.465 0 0 0 6.318-8.757c.087-.137.148-.293.18-.458.033-.165.036-.337.009-.504a4.603 4.603 0 0 1-.099-1.875c.097-.626.321-1.215.654-1.72C35.86 4.391 38.446 2.143 41.67.938 42.725.545 43.814.31 44.899 0h2.566ZM38.06 42.854c.096.947.148 2.506.428 4.008 1.623 8.8 7.197 14.855 15.786 13.668 6.941-.961 12.863-4.612 17.644-10.543 2.249-2.786 3.62-6.11 3.799-9.985.257-5.532-1.737-10.01-5.09-13.694-4.22-4.634-9.388-6.825-15.131-7.353-1.573-.18-3.155.212-4.526 1.12-2.223 1.467-4.547 2.726-6.815 4.117-.4.243-.752.581-1.032.991-3.346 5.024-4.911 10.754-5.063 17.671Zm-24.985-17.37c-5.574.586-9.842 6.071-9.879 12.681-.03 5.884 0 11.77 0 17.656 0 .371.037.74.114 1.1.115.512.378.962.744 1.277.367.315.816.475 1.272.455.457-.02.894-.22 1.239-.566.344-.347.576-.819.657-1.339.057-.428.082-.86.075-1.293V38.448c0-1.24.528-1.983 1.37-1.983.843 0 1.379.768 1.39 1.983V87.05c0 .373-.011.744 0 1.116.133 2.518 2.32 4.35 4.37 3.666 1.487-.496 2.408-2.005 2.41-4.025V64.2a4.884 4.884 0 0 1 .127-1.279c.094-.304.268-.567.496-.752a1.23 1.23 0 0 1 .781-.283c.28.001.552.103.78.29.226.188.398.453.49.757.095.417.137.848.124 1.28v23.049c0 .433 0 .867.026 1.298.172 2.23 2.172 3.862 4.05 3.306 1.694-.495 2.714-2.094 2.714-4.27 0-16.417-.004-32.835-.013-49.253-.034-1.586.449-3.13 1.353-4.323 3.06-4.18 6.075-8.407 9.1-12.622.18-.248.412-.573.412-.86 0-1.52.545-2.727 1.5-3.82l-3.31-2.84c-.34.464-.642.86-.923 1.262-1.889 2.612-3.786 5.217-5.664 7.836-1.17 1.631-2.676 2.404-4.485 2.451h-.858c-.954 2.918-1.22 5.745-.699 8.73.446 2.57.611 5.204.877 7.816.135 1.329-.35 2.348-1.286 3.084-.84.656-1.685 1.31-2.539 1.948-1.102.827-2.208.803-3.301-.035-.714-.548-1.404-1.14-2.144-1.638-1.346-.912-1.827-2.23-1.608-3.993.324-2.57.62-5.145.91-7.72.132-1.195.402-2.417.289-3.587-.157-1.531-.622-3-.96-4.55ZM25.18 12.64h-.137c0-.711.039-1.428 0-2.134-.25-3.965-2.836-6.92-6.35-7.296-3.143-.335-6.34 2.247-6.989 5.948-.326 1.849-.285 3.817-.214 5.72.165 3.775 2.815 6.94 5.93 7.252 3.56.37 6.616-2.02 7.417-5.909.245-1.162.238-2.389.343-3.581Zm22.13-5.016h-.082c0-1.116-.024-2.231 0-3.344.026-.862-.302-1.15-1.014-1.105-4.138.263-7.489 2.23-10.023 6.057-.398.6-.358.992.18 1.448 1.587 1.31 3.141 2.681 4.738 3.965a.946.946 0 0 0 .909.04 102.961 102.961 0 0 0 4.77-2.838c.138-.116.253-.264.337-.435.084-.17.136-.36.152-.557.07-1.063.032-2.15.032-3.234v.003ZM18.297 31.758c-.322 0-.644.028-.96 0-.473-.05-.644.164-.696.72-.325 3.095-.698 6.195-1.022 9.28-.004.152.021.301.073.44.051.139.128.263.225.364 2.249 1.97 2.255 1.96 4.581.121.045-.034.11-.057.129-.106.103-.248.296-.496.272-.744a679.52 679.52 0 0 0-.909-8.364c-.21-1.713-.233-1.71-1.693-1.71Zm34.188-16.714c.036-1.596-.982-2.337-2.011-1.735a762.994 762.994 0 0 0-9.596 5.7c-.765.459-1.001 1.294-.671 2.095.33.8 1.104 1.15 1.897.681a552.855 552.855 0 0 0 9.588-5.722c.392-.238.634-.808.793-1.019ZM15.939 25.461c.202.956.348 1.802.573 2.617a.834.834 0 0 0 .247.29c.1.074.215.119.334.131.77.05 1.545.045 2.317 0 .198 0 .519-.17.562-.337.227-.867.381-1.757.572-2.706l-4.605.005Z"/><path fill="#50AC97" d="M61.256 47.68c.215.513.45.991.643 1.507.36.922.114 1.831-.583 2.23a1.14 1.14 0 0 1-1.054.097 1.286 1.286 0 0 1-.461-.326 1.529 1.529 0 0 1-.307-.514c-.412-1.17-1.02-1.487-2.103-1.448-1.964.067-3.465-1.08-4.502-2.999-.532-.991-.401-1.933.298-2.448.699-.516 1.445-.285 2.02.726.642 1.135 1.538 1.752 2.707 1.564 1.168-.189 1.987-1.006 2.3-2.382.13-.525.13-1.082.001-1.607a3.035 3.035 0 0 0-.732-1.367c-.71-.813-1.582-1.148-2.572-.81-.714.247-1.398.641-2.123.8a4.787 4.787 0 0 1-3.286-.465c-1.027-.545-1.882-1.445-2.447-2.577a7.121 7.121 0 0 1-.707-3.739c.106-1.3.558-2.531 1.295-3.522.4-.542.482-.947.126-1.517a3.94 3.94 0 0 1-.381-.914 1.79 1.79 0 0 1 .005-1.133c.124-.363.362-.66.666-.83.6-.352 1.432-.233 1.685.496.487 1.4 1.23 1.735 2.51 1.712 1.801 0 3.238 1.135 4.22 2.93.568 1.043.445 1.983-.3 2.51-.715.496-1.45.218-2.024-.768-.755-1.299-1.91-1.829-3.12-1.435a2.799 2.799 0 0 0-1.361 1.147 3.508 3.508 0 0 0-.523 1.852c0 1.383.735 2.68 1.93 2.942.75.145 1.52.05 2.227-.278 3.31-1.559 6.847.439 7.621 4.461.416 2.167-.084 4.102-1.39 5.745-.096.11-.18.228-.278.36Z"/></svg>