<svg xmlns="http://www.w3.org/2000/svg" width="69" height="89" fill="none"><path fill="#50AC97" d="M.583 62.365c.09-.29.18-.58.264-.87.278-.92.76-1.707 1.385-2.262.624-.554 1.36-.85 2.115-.847 2.03 0 4.064.055 6.091-.02 1.454-.053 2.705.4 3.672 1.94l1.99-.96c-.28-1.506-.618-2.943-.813-4.41-1.393-10.543.732-19.69 6.421-27.369 2.802-3.775 5.67-7.464 8.525-11.174.143-.147.242-.354.282-.586a1.33 1.33 0 0 0-.063-.689c-.84-3.067-1.675-6.141-2.444-9.243a5.648 5.648 0 0 1-.098-2.345c.424-2.035 2.34-2.795 3.648-1.548 1.233 1.171 1.472 1.157 2.634-.131C35.297.624 36.705-.034 38.152 0c1.448.035 2.837.76 3.907 2.04.88 1.036 1.393 1.036 2.317.08.405-.457.913-.723 1.446-.757.533-.035 1.06.165 1.496.566.898.819 1.238 2.2.85 3.693a684.59 684.59 0 0 1-2.493 9.406 1.463 1.463 0 0 0-.075.764c.044.259.155.49.314.652 2.328 3.008 4.627 6.052 6.943 9.074.413.546.692 1.14.526 1.934a1.92 1.92 0 0 1-.33.769c-.16.214-.358.37-.577.454-.22.083-.451.09-.673.02a1.262 1.262 0 0 1-.592-.417c-.577-.674-1.104-1.42-1.65-2.135-1.967-2.58-3.923-5.181-5.912-7.723-.264-.318-.605-.504-.964-.525-3.09-.042-6.18-.042-9.27 0-.338.017-.66.19-.909.49-3 3.886-5.994 7.78-8.954 11.72-4.317 5.758-6.321 12.708-5.997 20.764a29.99 29.99 0 0 0 1.114 7.095c1.356-.456 2.633-.988 3.95-1.306 3.537-.864 6.932-.17 10.174 1.838 3.026 1.875 6.058 3.779 9.06 5.678 2.26 1.427 3.26 3.686 3.116 6.978v.836c.771-.75 1.453-1.32 2.054-2.01 3.411-3.943 6.809-7.905 10.192-11.887a2.56 2.56 0 0 0 .461-1.005 34.924 34.924 0 0 0-.029-16.048c-.045-.194-.097-.383-.14-.58-.228-1.064.106-1.973.846-2.297.168-.077.347-.107.524-.088.178.019.35.085.507.196.157.11.294.263.404.447.11.184.188.396.232.623.382 1.686.7 3.397.95 5.125.398 3.111.405 6.286.022 9.4.527-.184 1.022-.408 1.522-.515 1.062-.238 2.153-.025 3.116.608.963.634 1.746 1.654 2.235 2.912.49 1.258.66 2.688.485 4.082-.174 1.394-.683 2.678-1.453 3.665a1225.82 1225.82 0 0 1-8.973 11.44C55.9 78.6 53.929 81.24 51.75 83.53c-2.928 3.088-6.378 4.733-10.123 5.261-.172.04-.341.096-.506.17H3.63c-.732-.259-1.4-.766-1.934-1.47-.535-.704-.92-1.58-1.114-2.541V62.365Zm14.304 23.126h24.056c5.186 0 9.642-2.356 13.355-7.122 2.95-3.8 5.918-7.544 8.878-11.316 1.267-1.617 2.547-3.21 3.788-4.857 1.316-1.751.863-4.539-.856-5.271-.993-.425-1.844-.035-2.613.87-4.095 4.802-8.212 9.576-12.312 14.373-1.378 1.613-2.871 2.974-4.623 3.8-2.467 1.147-4.94 1.596-7.482.29-1.206-.618-2.468-1.036-3.703-1.568-2.452-1.036-4.906-2.045-7.356-3.088-.302-.101-.568-.338-.751-.67a2.16 2.16 0 0 1-.25-1.147c.022-.394.145-.767.35-1.056.205-.289.48-.477.778-.533.328-.016.656.054.964.204 3.985 1.647 7.967 3.32 11.954 4.96 1.362.563 2.634-.21 3.105-1.817.472-1.606-.053-3.285-1.346-4.1-3.194-2.02-6.376-4.072-9.602-6.003-2.808-1.683-5.794-2.183-8.778-1.133-2.37.832-4.66 2.072-6.995 3.108-.466.204-.574.515-.572 1.113.016 6.107 0 12.214 0 18.307l.01 2.656Zm-2.634-11.837v-9.9c0-1.34-.43-1.89-1.459-1.893H4.702c-1.027 0-1.456.553-1.456 1.893V83.55c0 1.382.421 1.938 1.493 1.941h5.958c1.161 0 1.559-.518 1.559-2.027-.007-3.282-.012-6.558-.013-9.828l.01.018ZM30.76 5.64c.761 2.857 1.467 5.558 2.218 8.235a.953.953 0 0 0 .288.322.69.69 0 0 0 .367.124c2.958.027 5.916 0 8.873.03a.55.55 0 0 0 .482-.16.939.939 0 0 0 .26-.554c.625-2.436 1.278-4.857 1.916-7.285.047-.22.086-.445.115-.67-1.927 1.101-3.563.728-5.067-1.085-.574-.724-1.337-1.133-2.134-1.142-.796-.01-1.565.382-2.148 1.094-1.53 1.84-3.176 2.228-5.18 1.074l.01.017Z"/><path fill="#50AC97" d="M38.193 35.054c.012 1.375-.419 2.055-1.11 2.102-.691.047-1.183-.528-1.257-1.503-.078-.931-.473-1.444-1.133-1.68a1.307 1.307 0 0 0-.935.016c-.305.12-.577.35-.786.664-.103.152-.18.33-.227.524a1.84 1.84 0 0 0-.04.6c.02.201.072.395.154.568.081.172.19.32.319.432.382.311.817.493 1.266.528 1.827.14 3.368 1.76 3.714 3.996.333 2.173-.602 4.291-2.313 5.328a1.084 1.084 0 0 0-.393.621c-.184.826-.627 1.326-1.235 1.304-.608-.022-.97-.515-1.153-1.329-.09-.286-.259-.517-.473-.649-1.351-.866-2.194-2.192-2.28-4.216-.042-.981.394-1.677 1.052-1.758a.916.916 0 0 1 .487.056c.157.063.303.169.428.31s.226.315.296.51c.07.196.11.408.114.624.015.392.128.766.321 1.065.194.3.457.507.749.59.303.138.63.153.94.042.309-.11.585-.342.792-.663.125-.17.217-.377.268-.603a1.91 1.91 0 0 0 .025-.698 1.706 1.706 0 0 0-.224-.633 1.216 1.216 0 0 0-.421-.426 2.3 2.3 0 0 0-1.136-.347c-1.74-.122-3.314-1.792-3.643-3.916-.343-2.223.561-4.347 2.249-5.368.209-.136.37-.373.45-.662.177-.797.577-1.288 1.168-1.3.28-.024.556.09.775.32.219.23.365.558.409.921.05.457.222.584.487.743 1.392.844 2.175 2.229 2.296 3.887ZM49.246 29.45c.003-.207.038-.411.103-.6.065-.188.159-.358.275-.497.116-.14.253-.247.402-.315a.911.911 0 0 1 .464-.082c.314.017.61.197.823.5.213.303.325.704.312 1.116-.013.412-.15.8-.38 1.08-.232.278-.538.426-.851.409a.939.939 0 0 1-.456-.131 1.232 1.232 0 0 1-.38-.354 1.666 1.666 0 0 1-.243-.522 1.97 1.97 0 0 1-.07-.604Z"/></svg>