<svg xmlns="http://www.w3.org/2000/svg" width="69" height="89" fill="none"><path fill="#50AC97" d="M10.956 88.703c-.418-.21-.826-.45-1.224-.715-1.405-1.062-2.02-2.684-2.02-4.708 0-1.876.018-3.753-.017-5.627a2.734 2.734 0 0 0-.33-1.249c-1.687-2.813-2.573-5.939-2.501-9.485a182.07 182.07 0 0 0 0-7.012c-.066-3.105.325-6.032 1.978-8.755H5.246c-.62 0-1.238.016-1.856-.028-1.36-.097-2.572-1.413-2.735-3.102a16.804 16.804 0 0 1 0-3.1c.14-1.527 1.25-2.982 2.445-3.105 1.21-.132 2.426-.12 3.634.037 1.365.19 2.186.967 3.658 2.931.112-.27.218-.518.316-.77 1.488-3.891 2.94-7.801 4.47-11.67 1.19-3.028 3.242-4.346 5.866-4.356 4.01-.011 8.022 0 12.033 0h.89c-1.715-6.908-1.092-13.316 2.189-19.174 2.359-4.213 5.589-6.94 9.553-8.197 7.9-2.505 16.117 2.802 19.353 12.368 3.363 9.948.215 21.958-8.319 27.135l1.923 4.845.379-.583c.964-1.476 2.192-2.342 3.716-2.46a30.42 30.42 0 0 1 2.471-.064c.322.002.64.062.948.178 1.731.664 2.525 2.924 2.142 6.043-.237 1.92-1.502 3.206-3.17 3.21h-3.159c.043.146.094.287.155.422 1.122 2.008 1.782 4.236 1.811 6.69a320.99 320.99 0 0 1-.035 10.213c-.062 2.922-.997 5.462-2.404 7.759-.223.38-.35.835-.368 1.307-.04 1.851-.01 3.702-.018 5.539 0 2.723-1.04 4.483-3.112 5.34a.664.664 0 0 0-.162.145h-6.063a.673.673 0 0 0-.16-.148c-2.108-.88-3.106-2.607-3.113-5.411v-2.154H20.298c0 .925.025 1.814 0 2.697-.065 1.851-.719 3.313-1.983 4.285a9.44 9.44 0 0 1-1.3.731l-6.06-.002ZM34.59 51.735c-8.183 0-16.365-.006-24.546-.018-.27-.021-.54.044-.785.19a1.756 1.756 0 0 0-.613.645c-1.112 1.75-1.707 3.93-1.685 6.17 0 2.8-.024 5.599.01 8.398.017.95.106 1.894.265 2.822.636 3.802 3.36 8.38 7.939 8.08 2.057-.137 4.126-.024 6.187-.024h32.73c1.537 0 2.94-.423 4.211-1.531 2.738-2.397 3.645-5.937 3.78-9.884.088-2.59.022-5.191.014-7.79.03-2.3-.592-4.538-1.754-6.313a1.632 1.632 0 0 0-.56-.587 1.233 1.233 0 0 0-.713-.183c-8.158.029-16.319.038-24.48.025Zm.793-30.802c-.016 9.967 6.403 18.075 14.352 18.133 7.9.056 14.458-8.162 14.455-18.128-.004-9.967-6.517-18.099-14.473-18.145-7.885-.046-14.314 8.088-14.33 18.14h-.004Zm19.243 20.003c-2.636 1.066-5.446 1.256-8.157.55-4.916-1.264-8.652-4.628-11.207-10.091a1.121 1.121 0 0 0-.283-.366.848.848 0 0 0-.378-.185c-4.744-.025-9.49-.053-14.233.014-1.455.02-2.544 1.023-3.227 2.658-.184.433-.326.891-.495 1.33a31282.7 31282.7 0 0 1-5.43 14.14h46.522l-3.112-8.05ZM18.16 80.714c-2.859-.074-5.695.41-8.315-1.707 0 1.59-.01 2.968 0 4.345.015 1.48.783 2.524 1.964 2.565 1.47.053 2.94.049 4.41 0 1.116-.032 1.888-1.015 1.941-2.413.028-.886 0-1.774 0-2.79ZM59.1 79.157c-2.612 2.126-5.478 1.587-8.3 1.694 0 .948-.026 1.779 0 2.607.053 1.457.805 2.424 1.962 2.462a73.21 73.21 0 0 0 4.39 0c1-.028 1.873-.914 1.924-2.043.075-1.506.024-3.024.024-4.72ZM6.029 48.36c.779 0 1.56.016 2.338 0 .6-.017.855-.62.568-1.284-.856-1.983-2.186-2.737-3.966-2.742-2.369 0-2.16.451-2.154 2.862 0 .789.338 1.157.945 1.157.755.011 1.512.004 2.269.007Zm56.788 0h2.265c.79 0 1.049-.35 1.062-1.36v-1.467c0-.743-.331-1.116-.888-1.157-.455-.037-.918.02-1.372-.016-1.745-.148-2.978.828-3.823 2.7-.33.733-.11 1.283.562 1.3.731.014 1.462 0 2.194 0Z"/><path fill="#50AC97" d="M52.273 66.016c-1.47 0-2.94.07-4.39-.025-1.057-.067-1.562-.925-1.55-2.27.028-2.67 1.336-4.682 3.46-5.284 1.872-.53 3.753-1.013 5.623-1.554 2.021-.586 3.623 1.09 3.414 3.47-.077.884 0 1.788-.015 2.681-.018 1.745-.71 2.832-2.081 2.943-1.481.118-2.973.026-4.459.026l-.002.013ZM48.67 63.44h1.427c1.966 0 3.932-.014 5.897-.04.292 0 .693.114.691-.534 0-.948.024-1.901-.033-2.845-.01-.195-.367-.546-.51-.51-2.054.528-4.105 1.081-6.144 1.692-.79.236-1.26 1.106-1.328 2.237ZM17.055 66.403c-1.664-.127-3.34-.141-4.988-.419-1.405-.231-1.918-1.198-1.925-3.007 0-.981-.013-1.962 0-2.94.033-2.134 1.343-3.596 3.007-3.2 2.154.513 4.301 1.091 6.42 1.792 1.853.616 3.123 3.022 3.049 5.467-.033 1.208-.551 1.992-1.582 2.066-1.323.093-2.653.021-3.979.021l-.002.22Zm3.404-3.082c-.25-1.332-.753-2.063-1.653-2.313-1.933-.556-3.878-1.046-5.811-1.606-.597-.171-.735.134-.735.784.03.748.03 1.497 0 2.245-.05.754.156 1.008.763.999 2.24-.035 4.479 0 6.72-.019.22-.007.44-.055.716-.09ZM34.548 64.841h6.873a2.81 2.81 0 0 1 .748.088.97.97 0 0 1 .58.442c.145.23.22.517.212.81.028.308-.034.618-.174.874-.14.255-.348.438-.587.514-.289.09-.586.128-.884.113H27.641c-1.134 0-1.654-.432-1.654-1.388 0-.955.57-1.455 1.69-1.455l6.871.002ZM34.446 73.32h-7.217c-1.008 0-1.605-1.14-1.049-2.056.146-.206.324-.373.521-.492.198-.12.412-.188.631-.203 2.245-.067 4.49-.032 6.735-.032 2.543 0 5.085-.03 7.626.032.215.023.423.1.613.229.19.128.356.304.49.516.17.32.113 1.088-.09 1.402-.229.352-.736.576-1.121.586-2.374.044-4.757.018-7.14.018ZM50.792 11.642c0 2.626 0 5.164.015 7.7a.93.93 0 0 0 .128.347.697.697 0 0 0 .24.235c2.6 1.18 4.008 3.47 4.012 6.56.004 3.088-1.5 5.48-4.099 6.581l-.294.116v1.406c-.018 1.134-.39 1.738-1.076 1.763-.687.026-1.158-.666-1.172-1.76v-1.418c-1.183-.304-2.256-1.08-3.06-2.214-.784-1.144-1.251-2.58-1.328-4.088-.07-.995.276-1.634.908-1.738.735-.123 1.25.37 1.32 1.43.106 1.605.679 2.776 1.836 3.47.092.043.187.076.283.097.015-.182.035-.319.035-.462V22.12c-.428-.194-.843-.343-1.23-.562-.966-.55-1.781-1.445-2.344-2.575-.563-1.13-.85-2.445-.822-3.778.033-1.379.404-2.711 1.062-3.815.658-1.103 1.57-1.923 2.612-2.348.605-.252.797-.597.724-1.342a4.113 4.113 0 0 1 .055-1.113c.12-.68.489-1.016 1.042-1.016a.898.898 0 0 1 .678.255c.196.182.335.445.393.743a.62.62 0 0 1 .042.252c-.265 1.584.503 2.036 1.503 2.61 1.853 1.061 2.768 3.093 2.904 5.656.054 1.027-.328 1.661-1.012 1.716-.656.051-1.165-.552-1.209-1.529-.068-1.499-.588-2.635-1.61-3.407a1.49 1.49 0 0 0-.247-.149 2.23 2.23 0 0 0-.289-.076Zm-2.289.02c-.634.278-1.181.804-1.56 1.502a4.717 4.717 0 0 0-.545 2.376c.039 1.62.966 3.26 2.105 3.67v-7.547Zm2.343 11.087v7.457c1.326-.549 2.138-2.136 2.083-3.986-.051-1.685-.9-3.124-2.083-3.47Z"/></svg>