<svg xmlns="http://www.w3.org/2000/svg" width="334" height="348" fill="none"><g clip-path="url(#a)"><path fill="#92E3A9" d="M227.387.393c-29.448.504-52.152 24.584-77.36 39.816-38.064 23-86.952 27.672-119.104 58.4-22.008 21.064-32.872 52.776-29.8 83.072 3.072 30.296 19.712 58.696 43.776 77.368 15.344 11.896 33.352 19.92 51.728 26.2 18.624 6.352 38.016 11.064 57.696 11.312 27.272.344 54.064-7.904 78.736-19.544 17.16-8.088 33.704-17.976 47.2-31.312 12.752-12.592 22.528-28.064 29.224-44.688 16.552-41.088 13.92-88.184-.432-130.096C297.179 36.257 268.155-.31 227.387.393Z"/><path fill="#fff" d="M227.387.393c-29.448.504-52.152 24.584-77.36 39.816-38.064 23-86.952 27.672-119.104 58.4-22.008 21.064-32.872 52.776-29.8 83.072 3.072 30.296 19.712 58.696 43.776 77.368 15.344 11.896 33.352 19.92 51.728 26.2 18.624 6.352 38.016 11.064 57.696 11.312 27.272.344 54.064-7.904 78.736-19.544 17.16-8.088 33.704-17.976 47.2-31.312 12.752-12.592 22.528-28.064 29.224-44.688 16.552-41.088 13.92-88.184-.432-130.096C297.179 36.257 268.155-.31 227.387.393Z" opacity=".7"/><path fill="#000" d="M245.643 169.961c-.208-6.024-.6-12.448-1.248-19.096-.872-13.28-2.536-25.68-5.552-33.48-16.608-3.4-102.888 2.936-102.952 2.936l-.536-2.4-.216-.952-.384-1.672-.104-.384a90.046 90.046 0 0 0-1.928-6.704s-65.408-5.84-87.104-.176v.568l.064 5.352c.064 10.36-.176 20.08.36 30.752v.08a1.806 1.806 0 0 0-.312 0 4.598 4.598 0 0 0-3.736 3.032 4.586 4.586 0 0 0-.232 1.936l.288 3.368v.16c.8 8.496 1.6 16.912 1.6 16.912s.416.04 1.096.072l3.592.256c-7.648.704-16 10.8-15.632 19.48.368 8.68-8 25.024-5.912 34.4 1.6 7.328 9.832 19.112 13.84 28.064l-.312 1.776-17.896 35.936c1.2-1.76 12 45.2 62.16 35.256l35.688-58.144a68.87 68.87 0 0 0 10.864-10.216 17.766 17.766 0 0 0 3.368-4.656 24.885 24.885 0 0 0 2.888-6.56c.16-.608.328-1.208.504-1.824 2.912-7.416 6.8-17.536 9.648-24.544 37.6-1.12 77.08-3.416 96.904-8.08h.04c1.92-13.04 1.96-27.672 1.152-41.448ZM52.547 202.817a57.753 57.753 0 0 1-.56-6.536c.44 2.304.92 4.6 1.424 6.904a19.973 19.973 0 0 0-.864-.368Z" opacity=".1"/><path fill="#fff" d="M18.339 287.881s16.064 47.496 66.248 37.552c0 0 11.136-52.28 20.464-60 6.016-4.96 19.304-13.856 22.144-20.296 2.84-6.44 14.248-37.024 16.456-40.704 2.208-3.68-23.936-46.024-23.936-46.024l-55.072 28.416-30.64 54.4s-5.88 35.2-15.664 46.656Z"/><path stroke="#263238" stroke-linecap="round" stroke-linejoin="round" stroke-width=".8" d="M33.467 245.465s-3.928 29.368-16.912 44.712M84.587 325.433s11.072-50.584 20.464-60c0 0 21.216-12.336 25.04-26.856 2.648-10.056 7.464-21.648 9.768-26.912M89.05 213.289c-.8-.512 12.841 10.4 13.369 25.312"/><path fill="#92E3A9" d="M237.187 204.145c-44.224 10.4-186.656 9.032-186.656 9.032-1.2-2.528-2.648-8.896-4.048-16.272-2.8-14.808-5.416-33.68-5.416-33.68l-4.712-.328s-.8-8.416-1.6-16.912c-.8-8.496 4-8.488 4-8.488l-.344-29.408-.088-7.344c21.696-5.664 87.104.176 87.104.176l2.04 7.088 1.136 5.024 102.944-2.904c9.44 24.408 5.64 94.016 5.64 94.016Z"/><path fill="#263238" d="m220.084 132.797-67.52 3.376a5.038 5.038 0 0 0-4.781 5.283l.686 13.72a5.04 5.04 0 0 0 5.284 4.781l67.52-3.376a5.038 5.038 0 0 0 4.78-5.284l-.686-13.72a5.038 5.038 0 0 0-5.283-4.78ZM225.691 165.553l.208 2.272-77.744 3.016-.064-2.048 77.6-3.24ZM226.075 173.481l.064 2.048-77.736 2.872-.064-2.048 77.736-2.872Z"/><path fill="#000" d="M231.531 110.129s11.472 54.4 5.656 94.016c0 0-72.544 8.512-97.384 7.136l-1.016-13.24 2.08-.32s-10.016-75.568-12.288-84.688c0 0 86.392-6.312 102.952-2.904Z" opacity=".3"/><path fill="#fff" d="m136.395 197.849.856 10.008s-73.12 3.2-79.552.872c-6.432-2.328.344-6.04 17.352-7.376 17.008-1.336 61.344-3.504 61.344-3.504Z" opacity=".8"/><path fill="#263238" d="M92.739 155.401c3.69 0 6.68-2.708 6.68-6.048s-2.99-6.048-6.68-6.048c-3.69 0-6.68 2.708-6.68 6.048s2.99 6.048 6.68 6.048Z"/><path stroke="#263238" stroke-linecap="round" stroke-linejoin="round" stroke-width=".8" d="M41.067 163.217a259.195 259.195 0 0 0 9.456 49.96c31.016-.264 62.024-.608 93.032-1.6 31.008-.992 62.872-3.088 93.6-7.432 0 0 5.504-48.608-5.656-94.016-12.336-2.568-102.608 2.888-102.608 2.888"/><path stroke="#263238" stroke-linecap="round" stroke-linejoin="round" stroke-width=".8" d="m136.395 197.849.856 10.008-69.6 1.6c-2.872.248-7.344.624-9.984-.728-1.2-.616-2.064-2.12-1.496-3.352.512-1.104 1.856-1.496 3.056-1.736 8.512-1.752 17.2-2.488 25.864-3.128a1162.876 1162.876 0 0 1 55.736-2.792c-.392 0-4.928-37.432-5.432-40.888-1.968-13.52-3.84-27.096-6.272-40.544a109.33 109.33 0 0 0-3.752-15.368c-28.672-2.048-58.616-3.944-87.112-.176.264 12.696-.208 24 .44 36.752M49.459 209.409a6.206 6.206 0 0 1-.304-1.6"/><path stroke="#263238" stroke-dasharray="3.13 3.13" stroke-linecap="round" stroke-linejoin="round" stroke-width=".8" d="M49.619 204.777c1.064-2.664 4.256-5.672 12.936-6.632 15.832-1.76 50.344-4.928 70.592-5.696"/><path stroke="#263238" stroke-linecap="round" stroke-linejoin="round" stroke-width=".8" d="m134.715 192.393 1.6-.056-.216-1.6"/><path stroke="#263238" stroke-dasharray="3.1 3.1" stroke-linecap="round" stroke-linejoin="round" stroke-width=".8" d="M135.651 187.673c-3.64-26.184-7.672-52.176-12.288-78.216"/><path stroke="#263238" stroke-linecap="round" stroke-linejoin="round" stroke-width=".8" d="m123.107 107.929-.288-1.6-1.6-.112"/><path stroke="#263238" stroke-dasharray="3.26 3.26" stroke-linecap="round" stroke-linejoin="round" stroke-width=".8" d="M117.987 106.009c-13.304-.888-51.136-3.104-76.376-1.376"/><path stroke="#263238" stroke-linecap="round" stroke-linejoin="round" stroke-width=".8" d="m39.979 104.753-1.6.128M36.355 162.897l-1.912-20.4a4.573 4.573 0 0 1 2.529-4.534 4.588 4.588 0 0 1 1.767-.466c11.76-.68 42.176-2.28 53.848-1.344 5.6.448 11.688 2.248 14.4 7.608 2.256 4.416 2.592 11.04-1.192 14.672-5.76 5.52-16.688 5.096-24.112 5.36-13.824.528-45.32-.776-45.328-.896Z"/><path fill="#263238" d="M108.675 150.425c0-.568 2.912 11.72-7.728 15.776-10.64 4.056-59.88 2.776-59.88 2.776v-5.76s34.832.736 40.632.576c5.8-.16 26.352 1.768 26.976-13.368Z"/><path stroke="#263238" stroke-linecap="round" stroke-linejoin="round" stroke-width=".8" d="M98.443 219.065s8.704 5.096 11.96 14.672"/><path stroke="#263238" stroke-dasharray="3.2 3.2" stroke-linecap="round" stroke-linejoin="round" stroke-width=".8" d="M34.683 140.561s42.688-2.008 53.552-1.648c10.864.36 16.184 2.752 17.264 9.56 1.08 6.808-5.504 11.048-10.752 11.848-5.248.8-58.4 1.032-58.4 1.032"/><path fill="#fff" d="M64.019 223.033s-6.608-22.952-18.768-27.472c0 0-2.4-15.664 2.784-16.528 5.184-.864 19.824-10.512 16-22.552-3.824-12.04-15.304 6.04-22.952 6.736-7.648.696-16 10.8-15.656 19.488.344 8.688-8 25.032-5.912 34.4 2.088 9.368 14.96 26.08 16 34.776"/><path stroke="#263238" stroke-linecap="round" stroke-linejoin="round" stroke-width=".8" d="M64.019 223.033s-6.608-22.952-18.768-27.472c0 0-2.4-15.664 2.784-16.528 5.184-.864 19.824-10.512 16-22.552-3.824-12.04-15.304 6.04-22.952 6.736-7.648.696-16 10.8-15.656 19.488.344 8.688-8 25.032-5.912 34.4 2.088 9.368 14.96 26.08 16 34.776"/><path fill="#fff" stroke="#263238" stroke-linecap="round" stroke-linejoin="round" stroke-width=".8" d="M48.01 159.689s9.16 1.664 14.137-4.152c4.976-5.816-.752-6.184-.752-6.184L48.01 159.689Z"/><path stroke="#263238" stroke-linecap="round" stroke-linejoin="round" stroke-width=".8" d="M31.65 172.649c1.673.115 3.29.646 4.705 1.544M31.37 175.977a8.85 8.85 0 0 1 4.577 1.808M56.099 206.721s39.2-2.024 49.52-1.432M96.075 202.297s9.864-.8 16 0M121.067 205.177h15.968"/><path stroke="#263238" stroke-dasharray="3.2 3.2" stroke-linecap="round" stroke-linejoin="round" stroke-width=".8" d="M130.723 117.513s70.104-6.264 98.272-2.688c0 0 7.6 13.976 5.944 85.6a898.747 898.747 0 0 1-95.424 7.096"/><g fill="#000" opacity=".1"><path d="M320.499 216.633c-1.992-8.472-4.912-11.656-7.84-14.104 0 0-.064-4.8-3.816-7.536a25.436 25.436 0 0 0-3.2-2.4c-3.52-2.64-7.4-5.6-7.4-5.6-1.824-5.28-4.296-11.672-6.968-17.96l.136 1.432c-2.736-6.68-5.416-13.328-6.168-15.536v-.048c.8 2.128 1.6 4.184 2.48 6.08l-10.016-35.4c-.24-1.424-.488-2.824-.736-4.176-.48-4-1.784-11.536-4.928-12.072a2.584 2.584 0 0 0-.352 0s-3.704-1.6-3.704 4.968c-4.408 1.472-6.112 4.8-6.536 8.712a11.715 11.715 0 0 0-.08 3.76c.08 1.448.248 2.928.472 4.4l-14.192-18.656-1.368-1.776-17.504-23.04-23.528-31.04a11.009 11.009 0 0 0-7.284-4.25 11.018 11.018 0 0 0-8.156 2.146l-29.208 22.184-11.4 8.656c-8.744 4.552-6.464 13.544-4.04 16.736l50.936 67.048a5.348 5.348 0 0 0-.8-.04s-1.456-3.432-5.056-2.888a4.163 4.163 0 0 0-2.144.712 3.836 3.836 0 0 0-1.432 1.304c-.399.482-.758.995-1.072 1.536-1.832 3.136-.136 10.808 2.512 20.176.168.608.336 1.192.496 1.736v.088l.68 2.344c2.592 8.992 7.44 26.648 8.336 35.304.064.8.104 1.656.12 2.456.056 9.968-4.368 26.656-2.464 33.552.248.904.504 1.768.76 2.624 1.416 4.608 2.68 8.968 4.904 13.296 2.704 5.28 5.928 10.344 8.944 15.456a802.894 802.894 0 0 0 17.184 27.84c2.728 4.208 5.92 8.048 9.008 12 1.416 1.816 4.504 4.544 5.04 6.872 0 0 27.384 2.264 42.712-7.472l-1.44-21.792 10.28-59.08c2.936-4.456 12-13.16 13.808-15.912a457.89 457.89 0 0 0 2.736-4.056c6.76-6.312 10.144-11.2 11.632-16.888.032.016-.072-.632-.344-1.696Zm-94.8 12.904-.136-.256a32.393 32.393 0 0 0 8.8 2.56c-3.192-.368-6.8-.88-8.664-2.304Zm11.552 2.648 1.472.104a10.99 10.99 0 0 1-1.472-.104Zm-11.84-3.248-1.84-3.648c-2.56-7.344-8.344-24.656-8.368-24.728a99.977 99.977 0 0 0-4.528-14.64 8.714 8.714 0 0 0 8.168-1.28l14-10.632a50.667 50.667 0 0 0 4.376 2.344l13.112 10.248-10.4 42.744-14.52-.408Zm53.072-98.448c1.088 5.104 2.808 12.448 5.088 19.56a128.302 128.302 0 0 1-5.104-19.56h.016ZM219.051 335.881l.08.384s-.024-.144-.08-.384Z"/></g><path fill="#fff" d="M267.651 132.057c.8-.528 12.528-6.912 18.4 12.232 5.872 19.144 12.76 51.72 12.76 51.72l-13.952 2.712s-12.928-6.88-24.512-24.112c0 0-16.24-4.208-23.312-14.208-6.4-9.088 13.344-42.456 13.344-42.456l17.272 14.112Z"/><path stroke="#263238" stroke-linecap="round" stroke-linejoin="round" stroke-width=".8" d="M262.635 155.881c3.456 5.184 10 16.088 18.832 19.528M252.859 161.457c1.6.648 5.6 2.952 7.488 3.04 0 0 8.152 16.136 21.6 21.376M245.379 167.401c5 4.184 10.96 7.04 14.968 7.2 0 0 8.152 16.136 21.6 21.376"/><path fill="#263238" d="m203.3 50.474-44.237 33.602a8.735 8.735 0 0 0-1.672 12.24l61.441 80.888a8.736 8.736 0 0 0 12.241 1.672l44.237-33.602a8.736 8.736 0 0 0 1.672-12.241l-61.441-80.887a8.736 8.736 0 0 0-12.241-1.672Z"/><path fill="#92E3A9" d="m274.051 143.521-40.592 30.84a11.016 11.016 0 0 1-8.159 2.15 11.007 11.007 0 0 1-7.281-4.262l-58.68-77.248a10.78 10.78 0 0 1-1.968-4.224 10.972 10.972 0 0 1 4.072-11.2l11.408-8.656 29.2-22.192a11.012 11.012 0 0 1 12.222-.74c1.25.73 2.343 1.699 3.218 2.852l23.544 30.992 17.504 23.04 17.6 23.2a11.014 11.014 0 0 1-2.088 15.448Z"/><path fill="#000" d="m241.003 81.833-68.176-10.92 29.224-22.184a11.016 11.016 0 0 1 15.44 2.112l23.512 30.992ZM274.051 143.521l-40.592 30.84a11 11 0 0 1-15.44-2.112l-58.68-77.248a10.78 10.78 0 0 1-1.968-4.224l102.512 15.944 16.256 21.4a11.014 11.014 0 0 1-2.088 15.4Z" opacity=".1"/><path fill="#fff" stroke="#263238" stroke-linecap="round" stroke-linejoin="round" stroke-width=".8" d="m207.82 56.564-7.167 5.444a3.265 3.265 0 0 0-.625 4.574l8.677 11.422a3.263 3.263 0 0 0 4.573.625l7.167-5.444a3.264 3.264 0 0 0 .625-4.573l-8.676-11.423a3.265 3.265 0 0 0-4.574-.625Z"/><path stroke="#263238" stroke-linecap="round" stroke-linejoin="round" stroke-width=".8" d="m204.387 59.169 12.368 16.808M204.387 72.321l12.368-9.376"/><path fill="#263238" d="m228.347 169.321-2.104 1.56-25.768-33.928 2.088-1.584 25.784 33.952ZM231.923 166.681l-2.112 1.56-25.792-33.968 2.08-1.584 25.824 33.992ZM235.499 164.041l-2.112 1.56-25.84-34.016 2.088-1.584 25.864 34.04ZM239.067 161.401l-2.104 1.552-25.496-33.568 2.08-1.584 25.52 33.6ZM242.923 158.553l-2.112 1.552-25.528-33.616 2.088-1.584 25.552 33.648ZM242.923 119.001l-2.112 1.552-25.528-33.624 2.088-1.584 25.552 33.656ZM187.317 60.008l-3.268 2.482 71.956 94.73 3.268-2.482-71.956-94.73Z"/><path stroke="#263238" stroke-linecap="round" stroke-linejoin="round" stroke-width=".8" d="m274.051 143.521-40.592 30.84a11.016 11.016 0 0 1-8.159 2.15 11.007 11.007 0 0 1-7.281-4.262l-58.68-77.248a10.78 10.78 0 0 1-1.968-4.224 10.972 10.972 0 0 1 4.072-11.2l11.408-8.656 29.2-22.192a11.012 11.012 0 0 1 12.222-.74c1.25.73 2.343 1.699 3.218 2.852l23.544 30.992 17.504 23.04 17.6 23.2a11.014 11.014 0 0 1-2.088 15.448Z"/><path fill="#fff" d="M241.147 343.521s47.248 16.8 61.544-19.792c0 0-22.36-27.2-10.152-49.424 7.68-14 28.92-44.904 28.92-44.904s8.872-8.424 11.632-16.888c0 0-1.52-9.432-8.208-15.816 0 0-.072-4.8-3.824-7.536-3.752-2.736-10.632-8-10.632-8s-11.312-27.136-12.992-32.04c-1.68-4.904-5.056-14.176-6.744-24.416-1.688-10.24-3.248-21.264-6.832-21.232 0 0-3.696-1.6-3.696 4.968 0 0-7.76 4-6.616 12.464 1.144 8.464 2.2 12.84 1.896 17.6-.304 4.76 1.224 21.288 5.048 26.472 0 0 1.28 23.2 3.2 29.24.064.184.12.352.176.504 2.016 5.112-18.128 24.8-29.032 30.128 0 0-1.144 2.128-5.376 1.544-4.232-.584-11.392-.856-12.624-4-1.232-3.144-9.432-27.672-9.432-27.672s-6.632-31.44-19.88-31.432c0 0-2.008-4.8-7.2-2.176-5.192 2.624-1.792 16.928.504 24.752 2.296 7.824 8.112 28.392 9.056 37.856.944 9.464-4.416 28.424-2.4 35.88 2.016 7.456 4.256 12.488 10.688 24.696 6.432 12.208 20.68 48.608 22.976 59.224Z"/><path stroke="#263238" stroke-linecap="round" stroke-linejoin="round" stroke-width=".8" d="M241.147 343.521s-10.112-38.064-24.976-62.68c-14.864-24.616-6.12-33.32-6.12-53.808s-16.696-55.368-12.192-63.056c4.504-7.688 10.648-1.536 13.216 5.64 2.568 7.176-1.024 11.28-8.224 11.792"/><path stroke="#263238" stroke-linecap="round" stroke-linejoin="round" stroke-width=".8" d="M207.523 163.321s8.632-.528 13.936 13.272 13.8 48.8 22.648 59.448"/><path stroke="#263238" stroke-linecap="round" stroke-linejoin="round" stroke-width=".8" d="M237.123 223.113c.048.112 12.36 6.976 31.464.96M209.163 203.825a8.646 8.646 0 0 1 8.08-3.064M210.803 208.169a6.878 6.878 0 0 1 3.151-2.13 6.883 6.883 0 0 1 3.801-.134"/><path stroke="#263238" stroke-linecap="round" stroke-linejoin="round" stroke-width=".8" d="M280.163 108.417c-12.56 4.184-3.2 23.152-4.72 30.072-1.52 6.92 2.4 20.168 5.416 27.352 0 8.424 3 28.864 3 28.864-1.856 6.504-17.344 25.672-32.392 31.672"/><path stroke="#263238" stroke-linecap="round" stroke-linejoin="round" stroke-width=".8" d="M289.379 117.969s-.936-14.52-5.52-14.52-4.304 9.784-2.4 17.048c1.904 7.264 9.312 6.224 7.92-2.528Z"/><path stroke="#263238" stroke-linecap="round" stroke-linejoin="round" stroke-width=".8" d="M289.379 117.969s3.904 22.824 10.52 37.16M307.699 208.585c3.2-5.184 4.616-10.088 5.8-16.328-.296-3.912-4.8-16.68-10.032-29.048"/><path stroke="#263238" stroke-linecap="round" stroke-linejoin="round" stroke-width=".8" d="M310.851 182.369c5.192 3.904 14.224 6.904 13.184 13.64a56.658 56.658 0 0 1-6.96 19.112"/><path stroke="#263238" stroke-linecap="round" stroke-linejoin="round" stroke-width=".8" d="M303.843 325.433s-18.088-25.112-14.464-42.456c2.664-12.76 19.792-35.072 32.08-53.552 6.768-6.312 10.152-11.2 11.632-16.888-2.168-10.68-5.688-13.792-9.072-16.528M308.667 186.513a15.279 15.279 0 0 0-12.056 1.64M307.651 190.809a11.4 11.4 0 0 0-7.152 1.256"/></g><defs><clipPath id="a"><path fill="#fff" d="M.611.377h332.888v347.016H.611z"/></clipPath></defs></svg>