<svg xmlns="http://www.w3.org/2000/svg" width="271" height="281" fill="none"><g clip-path="url(#a)"><path fill="#92E3A9" d="M100.559 3.306s29.901-6.06 57.107 0c16.64 3.705 51.68 12.493 59.955 32.41 8.276 19.916-31.552 36.908-11.987 57.113 8.442 8.717 48.947 20.211 46.669 76.749-2.278 56.537-61.626 91.002-144.102 89.466-82.477-1.536-130.093-76.538-98.196-113.473 31.898-36.934 45.632-37.043 31.175-67.123-14.458-30.08 5.613-66.534 59.379-75.142Z"/><path fill="#fff" d="M100.559 3.306s29.901-6.06 57.107 0c16.64 3.705 51.68 12.493 59.955 32.41 8.276 19.916-31.552 36.908-11.987 57.113 8.442 8.717 48.947 20.211 46.669 76.749-2.278 56.537-61.626 91.002-144.102 89.466-82.477-1.536-130.093-76.538-98.196-113.473 31.898-36.934 45.632-37.043 31.175-67.123-14.458-30.08 5.613-66.534 59.379-75.142Z" opacity=".7"/><path fill="#263238" d="M180.885 82.55H77.749L64.88 18.532h128.883l-12.877 64.02Z"/><path fill="#92E3A9" d="M74.55 20.611 55.56 149.784h147.514L184.085 20.612"/><mask id="b" width="149" height="130" x="55" y="20" maskUnits="userSpaceOnUse" style="mask-type:luminance"><path fill="#fff" d="M74.556 20.611 55.56 149.784h147.52L184.085 20.612"/></mask><g mask="url(#b)"><path fill="#000" fill-opacity=".7" d="M203.081 149.783H55.561l7.942-54.016h131.635l7.943 54.016Z" opacity=".3"/></g><path stroke="#263238" stroke-linecap="round" stroke-linejoin="round" stroke-width=".64" d="M74.55 20.611 55.56 149.784h147.514L184.085 20.612"/><path fill="#263238" d="M180.073 20.611H78.569l-17.6 129.172h136.704l-17.6-129.171Z"/><path fill="#BFBFBF" stroke="#263238" stroke-linecap="round" stroke-linejoin="round" stroke-width=".64" d="M170.044 30.455h-55.098l-.64-1.408a2.17 2.17 0 0 0-1.984-1.28H99.829a1.28 1.28 0 0 0-1.28 1.28v1.433h-9.952a1.217 1.217 0 0 0-1.19 1.453l8.14 40.48h67.546l8.141-40.48a1.214 1.214 0 0 0-1.19-1.478Z"/><path fill="#fff" d="m172.124 33.559-.704 3.494-7.232 35.962a2.368 2.368 0 0 1-2.323 1.92H96.777a2.368 2.368 0 0 1-2.324-1.92l-7.372-36.813-.532-2.643a1.216 1.216 0 0 1 1.172-1.453h83.2a1.217 1.217 0 0 1 1.203 1.453Z"/><mask id="c" width="87" height="43" x="86" y="32" maskUnits="userSpaceOnUse" style="mask-type:luminance"><path fill="#fff" d="m172.124 33.559-.704 3.494-7.232 35.962a2.368 2.368 0 0 1-2.323 1.92H96.777a2.368 2.368 0 0 1-2.324-1.92l-7.372-36.813-.532-2.643a1.216 1.216 0 0 1 1.172-1.453h83.2a1.217 1.217 0 0 1 1.203 1.453Z"/></mask><g mask="url(#c)"><path fill="#92E3A9" d="m171.42 37.053-7.232 35.962a2.368 2.368 0 0 1-2.323 1.92H96.777a2.368 2.368 0 0 1-2.324-1.92l-7.372-36.813 84.339.851Z" opacity=".4"/></g><path stroke="#263238" stroke-linecap="round" stroke-linejoin="round" stroke-width=".64" d="m172.124 33.559-.704 3.494-7.232 35.962a2.368 2.368 0 0 1-2.323 1.92H96.777a2.368 2.368 0 0 1-2.324-1.92l-7.372-36.813-.532-2.643a1.216 1.216 0 0 1 1.172-1.453h83.2a1.217 1.217 0 0 1 1.203 1.453Z"/><path fill="#BFBFBF" stroke="#263238" stroke-linecap="round" stroke-linejoin="round" stroke-width=".64" d="M171.023 39.78h-56.422l-.64-1.402a2.227 2.227 0 0 0-2.029-1.28h-12.8a1.28 1.28 0 0 0-1.28 1.28v1.434h-10.24a1.223 1.223 0 0 0-1.216 1.452l8.32 40.359h69.165l8.32-40.359a1.22 1.22 0 0 0-.655-1.36 1.225 1.225 0 0 0-.523-.125Z"/><path fill="#fff" d="m173.148 42.992-.704 3.418-7.418 35.923a2.413 2.413 0 0 1-2.381 1.92h-66.65a2.413 2.413 0 0 1-2.38-1.92l-7.443-36.045-.679-3.296a1.223 1.223 0 0 1 1.216-1.453h85.223a1.225 1.225 0 0 1 1.199.916c.045.176.051.36.017.537Z"/><mask id="d" width="89" height="44" x="85" y="41" maskUnits="userSpaceOnUse" style="mask-type:luminance"><path fill="#fff" d="m173.148 42.992-.704 3.418-7.418 35.923a2.413 2.413 0 0 1-2.381 1.92h-66.65a2.413 2.413 0 0 1-2.38-1.92l-7.443-36.045-.679-3.296a1.223 1.223 0 0 1 1.216-1.453h85.223a1.225 1.225 0 0 1 1.199.916c.045.176.051.36.017.537Z"/></mask><g mask="url(#d)"><path fill="#92E3A9" d="m172.444 46.41-7.418 35.923a2.413 2.413 0 0 1-2.381 1.92h-66.65a2.413 2.413 0 0 1-2.38-1.92l-7.443-36.045 86.272.122Z" opacity=".4"/></g><path stroke="#263238" stroke-linecap="round" stroke-linejoin="round" stroke-width=".64" d="m173.148 42.992-.704 3.418-7.418 35.923a2.413 2.413 0 0 1-2.381 1.92h-66.65a2.413 2.413 0 0 1-2.38-1.92l-7.443-36.045-.679-3.296a1.223 1.223 0 0 1 1.216-1.453h85.223a1.225 1.225 0 0 1 1.199.916c.045.176.051.36.017.537Z"/><path fill="#BFBFBF" stroke="#263238" stroke-linecap="round" stroke-linejoin="round" stroke-width=".64" d="M171.996 49.104h-57.735l-.64-1.401a2.27 2.27 0 0 0-2.073-1.28H98.415a1.28 1.28 0 0 0-1.318 1.28v1.427H86.645a1.229 1.229 0 0 0-1.248 1.446l8.532 40.237h70.784l8.531-40.237a1.23 1.23 0 0 0-.708-1.368 1.23 1.23 0 0 0-.54-.104Z"/><path fill="#fff" stroke="#263238" stroke-linecap="round" stroke-linejoin="round" stroke-width=".64" d="M172.93 50.98H85.711a1.222 1.222 0 0 0-1.242 1.44l8.32 39.225a2.452 2.452 0 0 0 2.432 1.92h68.205a2.45 2.45 0 0 0 2.432-1.92l8.32-39.225a1.222 1.222 0 0 0-1.248-1.44Z"/><path fill="#BFBFBF" stroke="#263238" stroke-linecap="round" stroke-linejoin="round" stroke-width=".64" d="M172.975 56.509h-59.059l-.672-1.395a2.335 2.335 0 0 0-2.119-1.28h-13.44a1.282 1.282 0 0 0-1.35 1.28v1.427H85.666a1.235 1.235 0 0 0-1.28 1.44l8.723 40.122h72.416l8.724-40.122a1.242 1.242 0 0 0-.727-1.374 1.237 1.237 0 0 0-.547-.098Z"/><path fill="#fff" stroke="#263238" stroke-linecap="round" stroke-linejoin="round" stroke-width=".64" d="M173.929 58.493H84.713a1.235 1.235 0 0 0-1.28 1.44l8.505 39.11a2.495 2.495 0 0 0 2.49 1.882h69.76a2.497 2.497 0 0 0 2.489-1.882l8.506-39.11a1.241 1.241 0 0 0-1.254-1.44Z"/><path fill="#BFBFBF" stroke="#263238" stroke-linecap="round" stroke-linejoin="round" stroke-width=".64" d="M173.948 63.914H113.57l-.685-1.395a2.397 2.397 0 0 0-2.169-1.28H97.001a1.312 1.312 0 0 0-1.376 1.241v1.421H84.693a1.279 1.279 0 0 0-1.28 1.434l8.922 40h73.997l8.921-40a1.265 1.265 0 0 0-.329-1.008 1.285 1.285 0 0 0-.976-.413Z"/><path fill="#fff" d="M174.921 66.013h-91.2a1.242 1.242 0 0 0-1.28 1.434l2.137 9.6 6.554 29.395a2.563 2.563 0 0 0 2.56 1.882h71.296a2.564 2.564 0 0 0 2.56-1.882l3.2-14.42 5.478-24.569a1.243 1.243 0 0 0-.759-1.352 1.24 1.24 0 0 0-.546-.088Z"/><mask id="e" width="95" height="43" x="82" y="66" maskUnits="userSpaceOnUse" style="mask-type:luminance"><path fill="#fff" d="M174.921 66.013h-91.2a1.242 1.242 0 0 0-1.28 1.434l2.137 9.6 6.554 29.395a2.563 2.563 0 0 0 2.56 1.882h71.296a2.564 2.564 0 0 0 2.56-1.882l3.2-14.42 5.478-24.569a1.243 1.243 0 0 0-.759-1.352 1.24 1.24 0 0 0-.546-.088Z"/></mask><g mask="url(#e)"><path fill="#92E3A9" d="m84.553 77.04 6.553 29.395c.153.557.488 1.045.953 1.386.465.342 1.03.517 1.607.496h71.322a2.556 2.556 0 0 0 2.56-1.882l3.2-14.419L84.553 77.04Z" opacity=".4"/></g><path stroke="#263238" stroke-linecap="round" stroke-linejoin="round" stroke-width=".64" d="M174.921 66.013h-91.2a1.242 1.242 0 0 0-1.28 1.434l2.137 9.6 6.554 29.395a2.563 2.563 0 0 0 2.56 1.882h71.296a2.564 2.564 0 0 0 2.56-1.882l3.2-14.42 5.478-24.569a1.243 1.243 0 0 0-.759-1.352 1.24 1.24 0 0 0-.546-.088Z"/><path fill="#BFBFBF" stroke="#263238" stroke-linecap="round" stroke-linejoin="round" stroke-width=".64" d="m111.253 109.706-.806-1.344a2.66 2.66 0 0 0-2.413-1.152l-14.899.685a1.388 1.388 0 0 0-1.44 1.28l.064 1.408-11.878.544c-.91.038-1.562.755-1.344 1.478l11.52 39.04 80.409-3.699 7.879-39.917c.14-.742-.57-1.395-1.485-1.35l-65.607 3.027Z"/><path fill="#fff" d="m179.497 110.525-.896 4.595-6.765 34.324a2.749 2.749 0 0 1-2.682 1.984l-77.485 3.558a2.744 2.744 0 0 1-2.854-1.728L78.121 116.97l-.519-1.76c-.211-.723.442-1.44 1.35-1.478l99.079-4.557c.902-.039 1.613.614 1.466 1.35Z"/><mask id="f" width="103" height="47" x="77" y="109" maskUnits="userSpaceOnUse" style="mask-type:luminance"><path fill="#fff" d="m179.497 110.525-.896 4.595-6.765 34.324a2.749 2.749 0 0 1-2.682 1.984l-77.485 3.558a2.744 2.744 0 0 1-2.854-1.728L78.121 116.97l-.519-1.76c-.211-.723.442-1.44 1.35-1.478l99.079-4.557c.902-.039 1.613.614 1.466 1.35Z"/></mask><g mask="url(#f)"><path fill="#92E3A9" d="m178.601 115.12-6.765 34.324a2.749 2.749 0 0 1-2.682 1.984l-77.485 3.558a2.744 2.744 0 0 1-2.854-1.728L78.121 116.97l100.48-1.85Z" opacity=".4"/></g><path stroke="#263238" stroke-linecap="round" stroke-linejoin="round" stroke-width=".64" d="m179.497 110.525-.896 4.595-6.765 34.324a2.749 2.749 0 0 1-2.682 1.984l-77.485 3.558a2.744 2.744 0 0 1-2.854-1.728L78.121 116.97l-.519-1.76c-.211-.723.442-1.44 1.35-1.478l99.079-4.557c.902-.039 1.613.614 1.466 1.35Z"/><path fill="#BFBFBF" stroke="#263238" stroke-linecap="round" stroke-linejoin="round" stroke-width=".64" d="m112.962 118.615-.685-1.408a2.731 2.731 0 0 0-2.342-1.383l-15.174-.793a1.408 1.408 0 0 0-1.6 1.145l-.07 1.402-12.11-.64c-.928-.051-1.657.595-1.516 1.331l7.827 39.866 82.003 4.288 11.936-38.829c.218-.723-.442-1.44-1.37-1.485l-66.899-3.494Z"/><path fill="#fff" d="m182.159 126.301-1.92 6.323-9.69 31.527a2.79 2.79 0 0 1-2.918 1.702l-79.02-4.128a2.805 2.805 0 0 1-2.727-1.997l-6.688-34.093-.935-4.768c-.147-.736.59-1.382 1.517-1.331l101.011 5.28c.928.051 1.594.768 1.37 1.485Z"/><mask id="g" width="105" height="47" x="78" y="119" maskUnits="userSpaceOnUse" style="mask-type:luminance"><path fill="#fff" d="m182.159 126.301-1.92 6.323-9.69 31.527a2.79 2.79 0 0 1-2.918 1.702l-79.02-4.128a2.805 2.805 0 0 1-2.727-1.997l-6.688-34.093-.935-4.768c-.147-.736.59-1.382 1.517-1.331l101.011 5.28c.928.051 1.594.768 1.37 1.485Z"/></mask><g mask="url(#g)"><path fill="#92E3A9" d="m180.213 132.624-9.689 31.527a2.795 2.795 0 0 1-2.919 1.702l-79.02-4.128a2.805 2.805 0 0 1-2.727-1.997l-6.688-34.093 101.043 6.989Z" opacity=".4"/></g><path stroke="#263238" stroke-linecap="round" stroke-linejoin="round" stroke-width=".64" d="m182.159 126.301-1.92 6.323-9.69 31.527a2.79 2.79 0 0 1-2.918 1.702l-79.02-4.128a2.805 2.805 0 0 1-2.727-1.997l-6.688-34.093-.935-4.768c-.147-.736.59-1.382 1.517-1.331l101.011 5.28c.928.051 1.594.768 1.37 1.485Z"/><path fill="#BFBFBF" stroke="#263238" stroke-linecap="round" stroke-linejoin="round" stroke-width=".64" d="m111.503 128.823-.742-1.37a2.8 2.8 0 0 0-2.452-1.28H92.764a1.418 1.418 0 0 0-1.562 1.223v1.395H78.837c-.947 0-1.657.678-1.472 1.408l10.087 39.277h83.737l10.087-39.277c.185-.73-.525-1.408-1.472-1.408l-68.301.032Z"/><path fill="#fff" stroke="#263238" stroke-linecap="round" stroke-linejoin="round" stroke-width=".64" d="M169.641 173.13h-80.64c-1.396 0-2.605-.774-2.88-1.843l-9.856-38.291c-.192-.73.518-1.408 1.472-1.408h103.168c.953 0 1.664.678 1.472 1.408l-9.831 38.291c-.275 1.069-1.485 1.843-2.905 1.843Z"/><path fill="#BFBFBF" stroke="#263238" stroke-linecap="round" stroke-linejoin="round" stroke-width=".64" d="m111.157 138.147-.787-1.363a2.874 2.874 0 0 0-2.502-1.248H92.06a1.441 1.441 0 0 0-1.594 1.223v1.388H77.865c-.973 0-1.696.679-1.504 1.408l10.284 39.156h85.351l10.285-39.175c.192-.729-.532-1.408-1.504-1.408l-69.62.019Z"/><path fill="#fff" stroke="#263238" stroke-linecap="round" stroke-linejoin="round" stroke-width=".64" d="M170.447 182.416H88.194c-1.42 0-2.65-.774-2.931-1.843l-10.029-38.17c-.185-.729.538-1.408 1.504-1.408h105.165c.966 0 1.69.679 1.504 1.408l-10.029 38.17c-.281 1.094-1.51 1.843-2.931 1.843Z"/><path fill="#92E3A9" d="M187.157 226.551H71.484l-25.319-71.802h166.311l-25.319 71.802Z"/><mask id="h" width="167" height="73" x="46" y="154" maskUnits="userSpaceOnUse" style="mask-type:luminance"><path fill="#fff" d="M187.157 226.557H71.484l-25.319-71.802h166.311l-25.319 71.802Z"/></mask><g mask="url(#h)"><path fill="#000" fill-opacity=".7" d="M187.157 226.551H71.484l-25.319-71.802h166.311l-25.319 71.802Z" opacity=".3"/></g><path stroke="#263238" stroke-linecap="round" stroke-linejoin="round" stroke-width=".64" d="M187.157 226.551H71.484l-25.319-71.802h166.311l-25.319 71.802Z"/><path fill="#92E3A9" stroke="#263238" stroke-linecap="round" stroke-linejoin="round" stroke-width=".64" d="M210.274 145.303H48.367l-2.202 9.446h166.311l-2.202-9.446Z"/><path fill="#BFBFBF" stroke="#263238" stroke-linecap="round" stroke-linejoin="round" stroke-width=".64" d="m89.173 187.645-1.625 15.328h83.539l-1.619-15.328h-3.687l1.05 10.944H91.804l1.056-10.944h-3.687Z"/><path fill="#757575" stroke="#263238" stroke-linecap="round" stroke-linejoin="round" stroke-width=".64" d="M170.46 206.5H88.181l-.633-3.527h83.539l-.627 3.527ZM165.781 187.645l-.518 4.064.518 6.88h1.05l-1.05-10.944ZM92.86 187.645l.512 4.064-.512 6.88h-1.056l1.056-10.944Z"/><path fill="#fff" stroke="#263238" stroke-linecap="round" stroke-linejoin="round" stroke-width=".64" d="M156.233 179.959h-53.831l-2.566-13.011h58.969l-2.572 13.011Z"/><path fill="#fff" d="m132.924 54.115-.525-1.504a2.515 2.515 0 0 0-2.086-1.574L116.079 49.2a1.364 1.364 0 0 0-1.594 1.075l-.185 1.44-11.341-1.459a1.281 1.281 0 0 0-1.542 1.28l4.038 41.69 76.8 9.901 14.477-39.303a1.284 1.284 0 0 0-.192-1.093 1.277 1.277 0 0 0-.973-.532l-62.643-8.084Z"/><mask id="i" width="96" height="55" x="101" y="49" maskUnits="userSpaceOnUse" style="mask-type:luminance"><path fill="#fff" d="m132.924 54.115-.525-1.504a2.515 2.515 0 0 0-2.086-1.574L116.079 49.2a1.364 1.364 0 0 0-1.594 1.075l-.185 1.44-11.341-1.459a1.281 1.281 0 0 0-1.542 1.28l4.038 41.69 76.8 9.901 14.477-39.303a1.284 1.284 0 0 0-.192-1.093 1.277 1.277 0 0 0-.973-.532l-62.643-8.084Z"/></mask><g mask="url(#i)"><path fill="#92E3A9" d="m132.924 54.115-.525-1.504a2.515 2.515 0 0 0-2.086-1.574L116.079 49.2a1.364 1.364 0 0 0-1.594 1.075l-.185 1.44-11.341-1.459a1.281 1.281 0 0 0-1.542 1.28l4.038 41.69 76.8 9.901 14.477-39.303a1.284 1.284 0 0 0-.192-1.093 1.277 1.277 0 0 0-.973-.532l-62.643-8.084Z" opacity=".4"/></g><path stroke="#263238" stroke-linecap="round" stroke-linejoin="round" stroke-width=".64" d="m132.924 54.115-.525-1.504a2.515 2.515 0 0 0-2.086-1.574L116.079 49.2a1.364 1.364 0 0 0-1.594 1.075l-.185 1.44-11.341-1.459a1.281 1.281 0 0 0-1.542 1.28l4.038 41.69 76.8 9.901 14.477-39.303a1.284 1.284 0 0 0-.192-1.093 1.277 1.277 0 0 0-.973-.532l-62.643-8.084Z"/><path fill="#fff" d="m197.468 66.186-13.107 35.59-1.012 2.739a2.65 2.65 0 0 1-1.173 1.28 2.647 2.647 0 0 1-1.713.282l-74.016-9.549a2.654 2.654 0 0 1-2.394-2.246l-3.936-40.64a1.282 1.282 0 0 1 1.543-1.28l62.989 8.121 31.654 4.077a1.276 1.276 0 0 1 .973.533 1.278 1.278 0 0 1 .192 1.093Z"/><mask id="j" width="98" height="55" x="100" y="52" maskUnits="userSpaceOnUse" style="mask-type:luminance"><path fill="#fff" d="m197.468 66.186-13.107 35.59-1.012 2.739a2.65 2.65 0 0 1-1.173 1.28 2.647 2.647 0 0 1-1.713.282l-74.016-9.549a2.654 2.654 0 0 1-2.394-2.246l-3.936-40.64a1.282 1.282 0 0 1 1.543-1.28l62.989 8.121 31.654 4.077a1.276 1.276 0 0 1 .973.533 1.278 1.278 0 0 1 .192 1.093Z"/></mask><g mask="url(#j)"><path fill="#000" fill-opacity=".7" d="m197.468 66.186-13.107 35.59c-9.287-2.195-9.639-7.98-11.194-10.976-1.715-3.302-12.589-5.056-15.629-5.587-3.04-.531-4.889-3.61-4.889-3.61-2.74-7.68 11.558-14.4 11.558-14.4-.282-1.056.134-4.518.435-6.707l31.655 4.077a1.277 1.277 0 0 1 1.194 1.047c.035.188.027.381-.023.566Z" opacity=".3"/></g><path stroke="#263238" stroke-linecap="round" stroke-linejoin="round" stroke-width=".64" d="m197.468 66.186-13.107 35.59-1.012 2.739a2.65 2.65 0 0 1-1.173 1.28 2.647 2.647 0 0 1-1.713.282l-74.016-9.549a2.654 2.654 0 0 1-2.394-2.246l-3.936-40.64a1.282 1.282 0 0 1 1.543-1.28l62.989 8.121 31.654 4.077a1.276 1.276 0 0 1 .973.533 1.278 1.278 0 0 1 .192 1.093Z"/><path fill="#92E3A9" stroke="#263238" stroke-linecap="round" stroke-linejoin="round" stroke-width=".64" d="m114.037 64.592 1.012 25.146 9.113 1.184 1.069-25.069-11.194-1.26Z"/><path stroke="#263238" stroke-linecap="round" stroke-linejoin="round" stroke-width=".64" d="M119.599 87.895a3.262 3.262 0 0 0-.442-2.63 9.732 9.732 0 0 0-1.849-2.03 9.083 9.083 0 0 0 3.437 1.14c0-1.312-1.28-2.221-2.375-2.912a1.807 1.807 0 0 1 1.549.115 1.28 1.28 0 0 0-.454-1.082c.14.122.358-.07.352-.25a1.154 1.154 0 0 0-.224-.492 2.448 2.448 0 0 1-.199-1.235c0-1.504.045-3.015.064-4.519a.723.723 0 0 0 .525.583c0-.596-.07-1.19-.128-1.786-.141-1.504-.282-3.014-.429-4.518"/><path fill="#fff" d="M264.361 146.371s-51.648-46.208-54.938-49.12c-3.29-2.912-5.696-2.784-7.469-4.556-1.773-1.773-2.662-3.034-9.875-2.912-7.213.121-16.838-3.796-18.989-5.19-2.15-1.396-5.19-.378-7.219-1.166-2.029-.787-7.213-.096-10.381 0s-3.417-3.136-2.15-6.81c1.267-3.673 10.88-5.945 12.16-5.19 1.28.756 6.329-1.388 6.329-1.388-.761-2.663-.505-9.12-.505-9.12s-5.319-2.279-7.341-3.034a12.93 12.93 0 0 0-4.813-.506s.64-2.905 1.645-3.987c1.005-1.081 5.824-2.093 10.509-5.382 4.685-3.29 7.597-4.051 8.32-3.802.723.25 5.952 1.773 7.347 1.773 1.395 0 3.418-1.28 5.44-.883 2.022.397 5.696 3.545 7.341 3.923 1.645.378 2.15.723 4.307.723.947 0 4.813 2.823 4.813 2.823a19.86 19.86 0 0 1 4.685 1.516c2.4 1.14 4.934 6.586 6.073 8.359 1.139 1.773 1.28 6.073 1.28 6.073s3.04 1.645 4.179 3.924c1.14 2.278 43.092 24.812 43.092 24.812s6.611 25.914-3.84 49.12Z"/><path fill="#92E3A9" d="M227.586 113.456a9255.998 9255.998 0 0 0-18.137-16.205c-3.296-2.912-5.696-2.784-7.469-4.556-1.773-1.773-2.663-3.034-9.875-2.912-7.213.121-16.839-3.796-18.989-5.19-2.151-1.396-5.191-.378-7.219-1.166-2.029-.787-7.213-.096-10.381 0s-3.418-3.136-2.151-6.81c1.268-3.673 10.88-5.945 12.16-5.19 1.28.756 6.33-1.388 6.33-1.388-.762-2.663-.506-9.12-.506-9.12s-5.318-2.279-7.34-3.034a12.932 12.932 0 0 0-4.813-.506s.64-2.905 1.645-3.987c1.004-1.081 5.824-2.093 10.508-5.382 4.685-3.29 7.597-4.051 8.32-3.802.724.25 5.952 1.773 7.348 1.773 1.056 0 2.483-.73 4-.915-1.229.685-2.08 1.99-1.85 2.688.365 1.1 1.395 3.904 1.453 4.083-.275-.269-6.912-6.822-11.2-6.483-3.706.288-7.469 6.528-6.835 11.11.633 4.583-.903 4.583-.071 8 .832 3.418 1.587 8.23.32 10.131-1.267 1.901-3.795-1.478-3.795-1.478a6.166 6.166 0 0 0-3.2 5.274c0 3.673 3.84 3.923 6.106 4.307 2.265.384 10.624 4.96 16.332 5.203l5.709.237s-3.296-4.48-1.92-4.71c1.376-.231 5.568.179 8.32 4.48 2.752 4.3 4.864 5.254 9.965 7.366 3.014 1.21 10.963 9.792 17.235 18.182ZM252.879 88.912c-.774-.365-25.6-12.064-26.848-13.81-1.248-1.748-2.784-2.177-4.179-3.937-1.395-1.76-6.074-2.9-6.707-5.306-.634-2.406-1.396-9.708-2.56-10.61a21.26 21.26 0 0 0-3.034-1.857l1.882 4.691s-4.288-6.073-5.306-6.24c-1.018-.166 1.101 4.416.915 4.276-.185-.141-4.832-4.48-8.723-7.77.462.279.959.494 1.478.64 1.652.378 2.151.723 4.308.723.947 0 4.812 2.823 4.812 2.823 1.619.309 3.193.818 4.685 1.517 2.4 1.139 4.935 6.585 6.074 8.358 1.139 1.773 1.28 6.074 1.28 6.074s3.04 1.644 4.179 3.923c.685 1.382 15.654 9.837 27.744 16.505Z" opacity=".4"/><path stroke="#263238" stroke-linecap="round" stroke-linejoin="round" stroke-width=".64" d="M264.361 146.371s-51.648-46.208-54.938-49.12c-3.29-2.912-5.696-2.784-7.469-4.556-1.773-1.773-2.662-3.034-9.875-2.912-7.213.121-16.838-3.796-18.989-5.19-2.15-1.396-5.19-.378-7.219-1.166-2.029-.787-7.213-.096-10.381 0s-3.417-3.136-2.15-6.81c1.267-3.673 10.88-5.945 12.16-5.19 1.28.756 6.329-1.388 6.329-1.388-.761-2.663-.505-9.12-.505-9.12s-5.319-2.279-7.341-3.034a12.93 12.93 0 0 0-4.813-.506s.64-2.905 1.645-3.987c1.005-1.081 5.824-2.093 10.509-5.382 4.685-3.29 7.597-4.051 8.32-3.802.723.25 5.952 1.773 7.347 1.773 1.395 0 3.418-1.28 5.44-.883 2.022.397 5.696 3.545 7.341 3.923 1.645.378 2.15.723 4.307.723.947 0 4.813 2.823 4.813 2.823a19.86 19.86 0 0 1 4.685 1.516c2.4 1.14 4.934 6.586 6.073 8.359 1.139 1.773 1.28 6.073 1.28 6.073s3.04 1.645 4.179 3.924c1.14 2.278 43.092 24.812 43.092 24.812"/><path stroke="#263238" stroke-linecap="round" stroke-linejoin="round" stroke-width=".64" d="M171.343 60.919s.589-4.98 0-5.67M186.953 48.727s8.614 7.29 9.286 7.737M195.042 46.276c1.184.735 10.733 9.203 13.856 11.142M220.969 68.496c-.928-.544-3.38-1.728-3.629-2.656M171.849 70.039s.505 2.067 0 3.078M164.252 76.58s-1.178 3.29 1.606 5.484M175.733 45.354a6.432 6.432 0 0 0-1.689 3.373M162.601 55.248a5.75 5.75 0 0 0 3.289 3.373M200.457 91.287a62.663 62.663 0 0 0-5.415-6.79"/><path fill="#fff" d="M23.394 260.055s41.344-27.175 43.872-30.682a27.281 27.281 0 0 1 4.557-5.12s1.184-10.131 4.224-15.36c3.04-5.229 4.218-9.12 5.568-11.821 1.35-2.7 7.763-4.723 9.6-5.76 1.837-1.036 5.069-3.04 6.925-3.04 1.417.113 2.796.516 4.051 1.184 0 0 6.246-3.2 9.114-1.184 0 0 7.091.34 8.774.167 1.683-.173 4.224 1.017 4.224 1.017s4.218-3.033 7.085-1.856c2.867 1.178 4.237 1.684 4.313 3.373.077 1.69-.71 7.424-.71 7.424h-1.408s-4.723 6.151-5.229 7.379c-.505 1.229-3.2 7.981-3.2 7.981s3.539-2.701 5.76-4.723c2.221-2.022 6.08-5.907 10.131-6.918 4.052-1.012 6.919 1.248 6.919 3.66 0 0-4.723 3.764-5.76 4.948-1.037 1.184-2.842 4.217-4.877 6.4-2.035 2.182-6.726 11.372-10.81 15.756-4.083 4.384-21.76 13.837-25.83 15.188 0 0-24.64 17.216-35.443 31.731 0 0-29.363.173-41.85-19.744Z"/><path fill="#92E3A9" d="M103.561 244.355c.352.359 1.792.576 3.84.64a61.954 61.954 0 0 1-6.695 3.098s-16.115 11.258-27.993 23.245c4.09-6.509 11.942-14.631 14.86-16.32 4.064-2.368 11.872-10.01 11.872-10.01s2.944-1.837 4.116-.653ZM130.901 209.079a48.833 48.833 0 0 1 5.543-4.691 28.35 28.35 0 0 0-5.018 7.731c-.781 4.243-8.102 12.992-8.102 12.992 2.361-7.591.333-9.114.998-11.309.666-2.195 1.095-7.578 1.095-7.578s1.28-2.208 2.63-2.713c1.35-.506 4.896-9.453 5.555-10.663.659-1.209-4.371-3.2-5.721-3.347-1.351-.147-1.856 2.189-4.557 3.347-2.701 1.159-6.093 3.284-7.341 4.525-1.248 1.242-3.418 6.733-3.558 7.072.096-.384 1.625-6.547 2.022-7.776.333-1.024 3.578-2.912 4.781-3.584-1.997.928-3.117-.832-4.781-2.432-1.786-1.715-4.448-2.259-7.36-1.369-2.912.889-4.864 3.084-4.877 2.918-.013-.166-4.352-.928-5.76-.512-1.408.416-4.659 1.888-4.659 1.888s-2.957-1.702-7.814 3.091c-2.03 2.003-8.781 17.28-7.77 15.45 1.011-1.831 5.42-7.296 5.696-7.635-.294.716-9.248 20.812-11.078 22.092-1.83 1.28-2.362 5.812-8.96 9.53-6.26 3.526-30.4 18.701-32.794 20.205 11.45-7.61 36.25-24.243 38.17-26.938a27.281 27.281 0 0 1 4.556-5.12s1.184-10.131 4.224-15.36c3.04-5.229 4.218-9.12 5.568-11.821 1.35-2.7 7.764-4.723 9.6-5.76 1.837-1.036 5.07-3.04 6.925-3.04 1.417.113 2.796.516 4.051 1.184 0 0 6.247-3.2 9.114-1.184 0 0 7.091.34 8.774.167 1.684-.173 4.224 1.017 4.224 1.017s4.218-3.033 7.085-1.856c2.867 1.178 4.237 1.684 4.314 3.373.077 1.69-.711 7.424-.711 7.424h-1.408s-4.723 6.151-5.228 7.379c-.506 1.229-3.2 7.981-3.2 7.981s3.552-2.656 5.772-4.678ZM147.951 205.821s-4.723 3.763-5.76 4.947c-.608.711-1.51 2.093-2.56 3.559a28.143 28.143 0 0 0 1.082-5.248 8.696 8.696 0 0 1 4.051-3.2 7.674 7.674 0 0 1 3.2-.244.96.96 0 0 1-.013.186Z" opacity=".4"/><path stroke="#263238" stroke-linecap="round" stroke-linejoin="round" stroke-width=".64" d="M23.394 260.055s41.344-27.175 43.872-30.682a27.281 27.281 0 0 1 4.557-5.12s1.184-10.131 4.224-15.36c3.04-5.229 4.218-9.12 5.568-11.821 1.35-2.7 7.763-4.723 9.6-5.76 1.837-1.036 5.069-3.04 6.925-3.04 1.417.113 2.796.516 4.051 1.184 0 0 6.246-3.2 9.114-1.184 0 0 7.091.34 8.774.167 1.683-.173 4.224 1.017 4.224 1.017s4.218-3.033 7.085-1.856c2.867 1.178 4.237 1.684 4.313 3.373.077 1.69-.71 7.424-.71 7.424h-1.408s-4.723 6.151-5.229 7.379c-.505 1.229-3.2 7.981-3.2 7.981s3.539-2.701 5.76-4.723c2.221-2.022 6.08-5.907 10.131-6.918 4.052-1.012 6.919 1.248 6.919 3.66 0 0-4.723 3.764-5.76 4.948-1.037 1.184-2.842 4.217-4.877 6.4-2.035 2.182-6.726 11.372-10.81 15.756-4.083 4.384-21.76 13.837-25.83 15.188 0 0-24.64 17.216-35.443 31.731"/><path stroke="#263238" stroke-linecap="round" stroke-linejoin="round" stroke-width=".64" d="M125.167 213.776s1.011 5.069-1.018 9.6M118.581 193.38a21.06 21.06 0 0 0 5.76-3.879M133.602 198.416c.545-1.116.916-2.31 1.101-3.539M111.324 188.317a8.737 8.737 0 0 0-5.658 1.92M102.21 189.501s-5.062 2.362-6.835 2.362c-1.773 0-4.646 2.361-4.646 3.04M71.823 224.272a35.006 35.006 0 0 0 3.635-7.347M119.676 194.903s-3.2.838-4.301 3.539-6.163 12.07-6.163 12.07M103.561 193.379c-.679 1.607-8.276 15.7-8.276 15.7"/></g><defs><clipPath id="a"><path fill="#fff" d="M.009.611h270.253v279.507H.009z"/></clipPath></defs></svg>