<svg xmlns="http://www.w3.org/2000/svg" width="348" height="324" fill="none"><g clip-path="url(#a)"><path fill="#92E3A9" d="M164.075 1.81c93.7-8.275 93.889 44.334 136.123 93.385 42.233 49.051 51.263 71.282 35.319 127.827-15.945 56.544-69.52 100.863-135.912 75.75-66.391-25.112-104.385-1-146.24-23.321-41.856-22.322-57.43-65.384-26.766-116.166C57.263 108.504 48.505 12.057 164.075 1.81Z"/><path fill="#fff" d="M164.075 1.81c93.7-8.275 93.889 44.334 136.123 93.385 42.233 49.051 51.263 71.282 35.319 127.827-15.945 56.544-69.52 100.863-135.912 75.75-66.391-25.112-104.385-1-146.24-23.321-41.856-22.322-57.43-65.384-26.766-116.166C57.263 108.504 48.505 12.057 164.075 1.81Z" opacity=".7"/><path fill="#fff" stroke="#263238" stroke-linecap="round" stroke-linejoin="round" d="M226.464 24.323 79.183 40.642l22.784 203.839 147.282-16.318-22.785-203.839Z"/><path fill="#BFBFBF" stroke="#263238" stroke-linecap="round" stroke-linejoin="round" d="M226.471 24.325 79.19 40.642l3.152 28.204 147.282-16.318-3.153-28.203Z"/><path fill="#fff" d="m185.55 37.32-63.58 7.04a2.186 2.186 0 0 0-1.545.755 2.154 2.154 0 0 0-.245 2.469 2.159 2.159 0 0 0 1.366 1.042c.286.072.585.085.877.038l63.581-7.041a2.176 2.176 0 0 0 1.4-.824 2.16 2.16 0 0 0-.335-2.985 2.183 2.183 0 0 0-1.549-.495h.03ZM170.641 47.912l-31.783 3.52a1.085 1.085 0 0 0-.73.395 1.067 1.067 0 0 0-.229.795c.03.285.173.546.397.727.224.18.51.265.797.236l31.79-3.521a1.088 1.088 0 0 0 .919-1.192 1.087 1.087 0 0 0-1.161-.96Z"/><path fill="#000" d="m194.399 72.302-83.311 9.224a.81.81 0 0 0-.714.891.813.813 0 0 0 .896.71l83.287-9.222a.81.81 0 0 0 .715-.892.805.805 0 0 0-.896-.71h.023ZM195.041 78.057 99.255 88.665a.81.81 0 0 0-.714.891.805.805 0 0 0 .895.711l95.786-10.607a.815.815 0 0 0 .569-.283.794.794 0 0 0 .087-.915.807.807 0 0 0-.51-.39.817.817 0 0 0-.327-.015ZM170.686 86.581l-70.789 7.84a.811.811 0 0 0-.714.89.805.805 0 0 0 .895.712l70.782-7.84a.815.815 0 0 0 .569-.283.808.808 0 0 0 .187-.604.804.804 0 0 0-.312-.554.817.817 0 0 0-.618-.16Z" opacity=".3"/><path stroke="#263238" stroke-linecap="round" stroke-linejoin="round" d="m215.522 69.238-8.449.936a2.063 2.063 0 0 0-1.829 2.277l.94 8.411a2.069 2.069 0 0 0 2.287 1.82l8.449-.935a2.064 2.064 0 0 0 1.829-2.277l-.941-8.412a2.068 2.068 0 0 0-2.286-1.82Z" opacity=".3"/><path stroke="#92E3A9" stroke-linecap="round" stroke-linejoin="round" stroke-width="3" d="m208.575 75.71 2.773 2.61 3.665-5.574"/><path fill="#000" d="m197.444 99.566-83.288 9.224a.807.807 0 0 0-.714.891.803.803 0 0 0 .3.54.814.814 0 0 0 .596.171l83.287-9.223a.817.817 0 0 0 .688-.578.815.815 0 0 0-.273-.854.815.815 0 0 0-.596-.17ZM198.086 105.321 102.3 115.929a.816.816 0 0 0-.542.298.788.788 0 0 0-.145.28.79.79 0 0 0 .069.613.802.802 0 0 0 .485.385.813.813 0 0 0 .314.026l95.787-10.607a.812.812 0 0 0 .714-.892.805.805 0 0 0-.3-.54.814.814 0 0 0-.596-.171ZM173.732 113.845l-70.79 7.839a.808.808 0 0 0-.714.892.807.807 0 0 0 .896.711l70.782-7.84a.813.813 0 0 0 .568-.283.794.794 0 0 0 .088-.913.82.82 0 0 0-.83-.406Z" opacity=".3"/><path stroke="#263238" stroke-linecap="round" stroke-linejoin="round" d="m218.569 96.503-8.448.936a2.063 2.063 0 0 0-1.829 2.277l.94 8.412a2.068 2.068 0 0 0 2.287 1.82l8.449-.936a2.063 2.063 0 0 0 1.828-2.276l-.94-8.412a2.068 2.068 0 0 0-2.287-1.82Z" opacity=".3"/><path stroke="#92E3A9" stroke-linecap="round" stroke-linejoin="round" stroke-width="3" d="m211.62 102.974 2.773 2.603 3.665-5.575"/><path fill="#000" d="m200.489 126.83-83.288 9.224a.802.802 0 0 0-.374 1.4.805.805 0 0 0 .556.194l83.288-9.238a.805.805 0 0 0 .542-.299.79.79 0 0 0 .076-.892.816.816 0 0 0-.485-.385.816.816 0 0 0-.315-.026v.022ZM201.139 132.585l-95.794 10.608a.786.786 0 0 0-.544.294.784.784 0 0 0-.166.594.797.797 0 0 0 .297.541.807.807 0 0 0 .595.173l95.786-10.607a.823.823 0 0 0 .724-.573.799.799 0 0 0-.281-.874.816.816 0 0 0-.617-.156ZM176.777 141.109l-70.789 7.839a.812.812 0 0 0-.543.299.804.804 0 0 0 .724 1.304l70.782-7.847a.807.807 0 0 0 .421-1.429.814.814 0 0 0-.595-.173v.007Z" opacity=".3"/><path stroke="#263238" stroke-linecap="round" stroke-linejoin="round" d="m221.617 123.761-8.449.936a2.064 2.064 0 0 0-1.829 2.277l.94 8.412a2.068 2.068 0 0 0 2.287 1.82l8.449-.936a2.064 2.064 0 0 0 1.829-2.276l-.941-8.412a2.067 2.067 0 0 0-2.286-1.821Z" opacity=".3"/><path stroke="#92E3A9" stroke-linecap="round" stroke-linejoin="round" stroke-width="3" d="m214.665 130.23 2.774 2.611 3.665-5.575"/><path fill="#000" d="m203.535 154.094-83.288 9.224a.807.807 0 0 0-.375 1.4.807.807 0 0 0 .556.194l83.288-9.223a.812.812 0 0 0 .744-.567.792.792 0 0 0-.073-.641.808.808 0 0 0-.852-.387ZM204.184 159.849l-95.793 10.608a.798.798 0 0 0-.688.574.817.817 0 0 0 .274.855.807.807 0 0 0 .595.173l95.786-10.607a.81.81 0 0 0 .718-.895.811.811 0 0 0-.892-.708ZM179.853 168.373l-70.79 7.839a.803.803 0 0 0-.544.294.792.792 0 0 0-.166.594.797.797 0 0 0 .297.541.807.807 0 0 0 .594.174l70.782-7.84a.814.814 0 0 0 .69-.574.79.79 0 0 0 .028-.313.803.803 0 0 0-.295-.544.803.803 0 0 0-.596-.171Z" opacity=".3"/><path stroke="#263238" stroke-linecap="round" stroke-linejoin="round" d="m224.664 151.019-8.448.936a2.063 2.063 0 0 0-1.829 2.277l.94 8.411a2.068 2.068 0 0 0 2.287 1.821l8.449-.936a2.063 2.063 0 0 0 1.828-2.277l-.94-8.411a2.068 2.068 0 0 0-2.287-1.821Z" opacity=".3"/><path stroke="#92E3A9" stroke-linecap="round" stroke-linejoin="round" stroke-width="3" d="m217.711 157.494 2.773 2.611 3.665-5.575"/><path fill="#000" d="m206.587 181.35-83.287 9.224a.806.806 0 1 0 .173 1.602l83.288-9.223a.806.806 0 0 0 .718-.888.812.812 0 0 0-.892-.715ZM207.23 187.091l-95.794 10.607a.808.808 0 0 0-.451 1.454.82.82 0 0 0 .632.141l95.787-10.607a.822.822 0 0 0 .588-.275.796.796 0 0 0 .093-.931.804.804 0 0 0-.855-.389ZM182.875 195.637l-70.789 7.839a.808.808 0 0 0-.714.892.81.81 0 0 0 .895.711l70.789-7.84a.814.814 0 0 0 .616-1.194.795.795 0 0 0-.483-.383.793.793 0 0 0-.314-.025Z" opacity=".3"/><path stroke="#263238" stroke-linecap="round" stroke-linejoin="round" d="m227.705 178.292-8.449.936a2.064 2.064 0 0 0-1.829 2.277l.94 8.411a2.069 2.069 0 0 0 2.287 1.821l8.449-.936a2.064 2.064 0 0 0 1.829-2.277l-.94-8.411a2.069 2.069 0 0 0-2.287-1.821Z" opacity=".3"/><path stroke="#92E3A9" stroke-linecap="round" stroke-linejoin="round" stroke-width="3" d="m220.756 184.759 2.773 2.61 3.665-5.575"/><path fill="#000" d="m208.907 202.137-83.288 9.239a.811.811 0 0 0-.714.891.81.81 0 0 0 .896.711l83.288-9.223a.822.822 0 0 0 .302-.092.784.784 0 0 0 .408-.796.797.797 0 0 0-.292-.551.816.816 0 0 0-.6-.179ZM209.55 207.915l-95.787 10.607a.818.818 0 0 0-.589.275.806.806 0 0 0 .763 1.32l95.794-10.607a.81.81 0 0 0 .65-.881.808.808 0 0 0-.831-.714ZM185.187 216.431l-70.781 7.839a.819.819 0 0 0-.544.296.796.796 0 0 0-.174.592.81.81 0 0 0 .899.715l70.782-7.839a.823.823 0 0 0 .542-.299.792.792 0 0 0 .172-.593.818.818 0 0 0-.3-.54.807.807 0 0 0-.596-.171Z" opacity=".3"/><path stroke="#263238" stroke-linecap="round" stroke-linejoin="round" d="m230.039 199.086-8.449.936a2.064 2.064 0 0 0-1.829 2.277l.941 8.411a2.067 2.067 0 0 0 2.286 1.821l8.449-.936a2.063 2.063 0 0 0 1.829-2.277l-.94-8.411a2.068 2.068 0 0 0-2.287-1.821Z" opacity=".3"/><path stroke="#92E3A9" stroke-linecap="round" stroke-linejoin="round" stroke-width="3" d="m223.083 205.56 2.774 2.611 3.664-5.575"/><path fill="#92E3A9" d="M139.659 148.926a3.938 3.938 0 0 0-.612-2.461l-.929-1.64-1.844 1.039 1.005 1.76c.499.88.295 1.422-.325 1.768-.619.346-1.194.256-1.692-.624l-2.154-3.807-2.312.451 2.463 4.326c1.126 1.979 2.758 2.543 4.67 1.505.304-.174.586-.384.839-.625a1.178 1.178 0 0 1 .4-1.429c.148-.114.314-.203.491-.263ZM129.609 143.328l.439.753h2.546l-1.111-1.956c-.498-.88-.302-1.437.318-1.783.619-.346 1.201-.241 1.7.647l.756 1.316 1.836-1.038-.68-1.196c-1.126-1.971-2.758-2.543-4.67-1.46a3.944 3.944 0 0 0-1.149.933c.434.139.889.203 1.345.188l-1.813.677a3.557 3.557 0 0 0 .483 2.919ZM143.732 135.309c.243-.121.496-.219.756-.294.975-.436 1.194-1.835 1.111-2.821l-1.005-1.241-2.705 1.505 1.692 2.964a.574.574 0 0 1 .151-.113Z"/><path fill="#92E3A9" d="m155.256 141.199 1.836-1.038-7.02-12.323-1.745.978c.559.136.959.399.975.805-.545.075-1.21 0-1.799.105l3.537 9.126-4.474-5.552a.743.743 0 0 1-.272.654c-.204.143-.499.143-.657.331-.159.189-.136.414-.272.58-.136.165-.348.21-.514.331-.166.12-.348.429-.537.632a.761.761 0 0 1-.332.203l4.972 8.727 1.693-.963-4.965-8.712 6.378 7.914 1.843-1.038-3.725-9.577 5.078 8.817ZM159.903 130.471a1.105 1.105 0 0 1 .567.662 3.695 3.695 0 0 0-.567-2.67l-.914-1.61c-1.126-1.972-2.69-2.506-4.64-1.407l-2.864 1.617 7.028 12.331 1.821-1.031c-.589-.369-1.247-.685-1.806-1.083a1.849 1.849 0 0 1-.627-.67.791.791 0 0 1 .091-.865.89.89 0 0 1 .937-.128l-1.111-1.956.922-.519a3.987 3.987 0 0 0 1.292-1.113c-.386-.61-1.058-1.904-.129-1.558Zm-2.168.948-.922.519-2.381-4.175.922-.519c.62-.346 1.119-.256 1.617.624l1.058 1.851c.499.842.325 1.316-.294 1.7ZM170.324 132.721l-.998-1.761-3.204 1.806-4.685-8.223-.211.165a1.127 1.127 0 0 1-.484.264.39.39 0 0 1-.446-.241.813.813 0 0 1 0-.354 3.296 3.296 0 0 0-.634-1.948l-1.512.873 7.02 12.323 5.154-2.904ZM169.447 128.41c.212-.549.869-.752 1.239-1.249.034-.051.064-.104.091-.158l-.756-1.264 1.912-1.076a.827.827 0 0 0-.181-.323 3.04 3.04 0 0 0-.869-.271.655.655 0 0 1 .009-.6.663.663 0 0 1 .497-.34c.129 0 .28 0 .378-.06a.42.42 0 0 0 .098-.294l-.174-.301-2.675 1.505-1.949-3.431 3.355-1.903-1.005-1.76-5.29 3.009 5.199 9.125c.009-.208.05-.413.121-.609ZM176.482 129.245l-1.005-1.76-3.362 1.895-1.005-1.722-1.24 1.158-.43.414 1.738 3.047 5.304-3.032ZM173.981 114.928c0 .264-.189.557-.446.58a1.364 1.364 0 0 1-.385-.061 3.001 3.001 0 0 1-.695-.067.496.496 0 0 1-.136-.083l-2.222 1.256 1.005 1.768 2.033-1.151 6.045 10.533 1.942-1.099-6.045-10.532 2.04-1.151-1.005-1.761-2.086 1.174c-.037.196-.022.399-.045.594ZM182.467 122.391l1.511 2.656 2.041-1.151a2.28 2.28 0 0 1 .181-.384 4.797 4.797 0 0 1 1.761-1.549l.937-.58-.62-1.098-3.363 1.903-2.055-3.611 2.675-1.505-1.005-1.76-2.675 1.505-1.95-3.453 3.363-1.896-1.005-1.761-5.29 3.01 3.817 6.703c.921-.489 1.382 1.271 1.677 2.971ZM143.332 146.736c.317.053.506.369.756.58.09.083.195.149.309.195.145-.057.286-.122.424-.195 1.904-1.076 2.304-2.791 1.186-4.77l-.113-.196-2.615-.067.854 1.504c.499.881.302 1.437-.317 1.783-.62.346-1.202.234-1.701-.647l-3.778-6.658c-.506-.88-.302-1.429.317-1.783.62-.353 1.194-.233 1.701.647l2.561 4.514a10.358 10.358 0 0 1 2.403-.301l-2.954-5.183c-1.119-1.971-2.804-2.505-4.716-1.43-1.911 1.076-2.312 2.799-1.186 4.77l3.65 6.41a3.466 3.466 0 0 0 2.478 1.933.76.76 0 0 1 0-.135c-.09-.489.272-1.061.741-.971ZM169.425 111.355l5.931-3.348c-1.7.467-3.196 1.881-4.949 1.685a1.909 1.909 0 0 0-.967 0 .934.934 0 0 0-.318 1.227c.077.16.179.308.303.436ZM154.546 119.758a.655.655 0 0 1 .075-.376c.146.051.299.076.454.075l2.048-1.151c.32-.361.686-.679 1.088-.948a5.779 5.779 0 0 1 1.224-.481l.453-.136 3.778-2.121a.698.698 0 0 1 .159-.203.784.784 0 0 1 .189-.091l-3.899-1.173-1.05.587-.114.827-4.496 2.393a4.02 4.02 0 0 1-1.458.549 2.574 2.574 0 0 1-.582 0l-6.408 3.618c.051.303.137.598.257.881a2.806 2.806 0 0 1-1.051-.429l-1.314.752a57.72 57.72 0 0 1 2.758 1.919l7.889-4.492ZM181.976 104.275l-3.098-1.73-1.466.828a6.05 6.05 0 0 0 3.196 1.715l1.368-.813Z"/><path fill="#92E3A9" d="m198.638 122.489-11.697-20.53a3.475 3.475 0 0 0-2.092-1.621 3.489 3.489 0 0 0-2.631.319l-1.406.798.537.519c.559.556 1.133 1.121 1.655 1.715l.71-.399a.428.428 0 0 1 .323-.039c.109.029.202.1.259.197l11.705 20.538a.43.43 0 0 1-.166.58l-15.922 9.028c1.375.082 2.766-.113 4.141.045.495.062.987.15 1.473.263l11.804-6.666a3.46 3.46 0 0 0 1.744-3.458 3.442 3.442 0 0 0-.437-1.289ZM126.957 148.617l-5.501-9.675a.415.415 0 0 1-.043-.326.43.43 0 0 1 .201-.26l15.869-8.968c-.053-.12-.121-.241-.166-.361.224-.01.448.016.665.075l6.415-3.619c-.211-.067-.415-.15-.619-.225l-3.023-1.196-2.418 1.369 2.63 1.602c-.915-.557-2.781-.632-4.391-.609l-16.42 9.306a3.455 3.455 0 0 0-1.63 2.082 3.44 3.44 0 0 0 .323 2.62l4.776 8.381c.219-.06.445-.113.664-.151a9.904 9.904 0 0 1 1.829-.09c.28-.002.561.013.839.045ZM146.559 152.394c.269.24.575.436.906.579.34.151.794.512.529.752-1.224.557-2.735.143-3.937.753-.657.316-1.292.94-1.995.752a9.608 9.608 0 0 1 2.267 1.903l30.007-16.942c0-.12.038-.24.061-.368a1.54 1.54 0 0 1 .606-1.226 1.564 1.564 0 0 1 1.343-.279 3.98 3.98 0 0 1 1.156.12l3.741-2.114a13.971 13.971 0 0 0-1.814-2.452l-32.87 18.522ZM141.7 157.367a5.464 5.464 0 0 1-1.957-1.121l-5.985 3.385a.422.422 0 0 1-.473-.032.4.4 0 0 1-.109-.126l-5.29-9.231a3.679 3.679 0 0 0-1.579-.18c-.612.12-1.149.827-.816 1.346a1.77 1.77 0 0 1 1.511.933 4.86 4.86 0 0 1-1.065.64l4.534 7.982a3.466 3.466 0 0 0 2.124 1.656 3.476 3.476 0 0 0 2.674-.355l7.844-4.431-.091-.053a12.97 12.97 0 0 0-1.322-.413Z"/><g fill="#000" opacity=".2"><path d="M139.659 148.926a3.935 3.935 0 0 0-.612-2.46l-.929-1.64-1.844 1.038 1.005 1.76c.499.881.295 1.422-.325 1.768-.619.346-1.194.256-1.692-.624l-2.154-3.807-2.312.451 2.463 4.326c1.126 1.979 2.758 2.543 4.67 1.505.304-.174.586-.383.839-.624a1.18 1.18 0 0 1 .4-1.43c.148-.114.314-.203.491-.263ZM129.609 143.328l.439.753h2.546l-1.111-1.956c-.498-.88-.302-1.437.318-1.783.619-.346 1.201-.241 1.7.647l.756 1.316 1.836-1.038-.68-1.196c-1.126-1.971-2.758-2.543-4.67-1.46a3.944 3.944 0 0 0-1.149.933c.434.139.889.203 1.345.188l-1.813.677a3.557 3.557 0 0 0 .483 2.919ZM143.732 135.309c.243-.121.496-.219.756-.294.975-.436 1.194-1.835 1.111-2.821l-1.005-1.241-2.705 1.505 1.692 2.964a.574.574 0 0 1 .151-.113Z"/><path d="m155.256 141.2 1.836-1.039-7.02-12.323-1.745.978c.559.136.959.399.975.805-.545.076-1.209 0-1.799.106l3.537 9.125-4.474-5.552a.753.753 0 0 1-.272.655c-.204.143-.499.143-.657.331-.159.188-.136.414-.272.579-.136.166-.348.211-.514.331-.166.12-.348.429-.537.632a.743.743 0 0 1-.332.203l4.972 8.727 1.693-.963-4.965-8.712 6.378 7.915 1.843-1.039-3.725-9.577 5.078 8.818ZM159.903 130.471a1.105 1.105 0 0 1 .567.662 3.695 3.695 0 0 0-.567-2.67l-.914-1.61c-1.126-1.971-2.69-2.505-4.64-1.407l-2.864 1.617 7.028 12.331 1.821-1.031c-.589-.368-1.247-.684-1.806-1.083a1.84 1.84 0 0 1-.627-.67.791.791 0 0 1 .091-.865.893.893 0 0 1 .937-.128l-1.111-1.956.922-.519a3.975 3.975 0 0 0 1.292-1.113c-.386-.61-1.058-1.904-.129-1.558Zm-2.168.948-.922.519-2.381-4.175.922-.519c.62-.346 1.119-.256 1.617.624l1.058 1.851c.499.843.325 1.317-.294 1.7ZM170.324 132.721l-.998-1.761-3.204 1.806-4.685-8.223-.211.166a1.125 1.125 0 0 1-.484.263.39.39 0 0 1-.446-.241.809.809 0 0 1 0-.353 3.3 3.3 0 0 0-.634-1.949l-1.512.873 7.02 12.323 5.154-2.904ZM169.447 128.41c.212-.549.869-.752 1.239-1.249.034-.051.064-.104.091-.158l-.755-1.264 1.911-1.076a.827.827 0 0 0-.181-.323 3.04 3.04 0 0 0-.869-.271.655.655 0 0 1 .009-.6.663.663 0 0 1 .497-.34c.129 0 .28 0 .378-.06a.42.42 0 0 0 .098-.294l-.174-.301-2.675 1.505-1.949-3.431 3.355-1.903-1.005-1.76-5.29 3.009 5.199 9.125c.009-.208.05-.413.121-.609ZM176.482 129.245l-1.005-1.76-3.362 1.895-1.005-1.722-1.24 1.158-.43.414 1.738 3.047 5.304-3.032ZM173.981 114.929c0 .263-.189.556-.446.579a1.4 1.4 0 0 1-.385-.06 3.058 3.058 0 0 1-.695-.068.473.473 0 0 1-.136-.083l-2.222 1.257 1.005 1.768 2.033-1.152 6.045 10.533 1.942-1.098-6.045-10.533 2.04-1.151-1.005-1.76-2.086 1.173c-.037.196-.022.399-.045.595ZM182.467 122.392l1.511 2.655 2.041-1.151c.048-.133.109-.262.181-.383a4.8 4.8 0 0 1 1.761-1.55l.937-.58-.62-1.098-3.363 1.903-2.055-3.611 2.675-1.504-1.005-1.761-2.675 1.505-1.95-3.453 3.363-1.896-1.005-1.76-5.29 3.009 3.817 6.703c.921-.489 1.382 1.271 1.677 2.972ZM143.332 146.737c.317.052.506.368.756.579.09.083.195.149.309.196.145-.058.286-.123.424-.196 1.904-1.076 2.304-2.791 1.186-4.77l-.113-.195-2.615-.068.854 1.505c.499.88.302 1.436-.317 1.783-.62.346-1.202.233-1.701-.647l-3.778-6.658c-.506-.881-.302-1.43.317-1.783.62-.354 1.194-.234 1.701.647l2.561 4.513a10.41 10.41 0 0 1 2.403-.3l-2.954-5.184c-1.119-1.971-2.804-2.505-4.716-1.429-1.911 1.075-2.312 2.798-1.186 4.769l3.65 6.41c.23.494.575.927 1.006 1.263a3.48 3.48 0 0 0 1.472.671.772.772 0 0 1 0-.136c-.09-.489.272-1.061.741-.97ZM169.425 111.355l5.931-3.348c-1.7.467-3.196 1.881-4.949 1.686a1.909 1.909 0 0 0-.967 0 .935.935 0 0 0-.318 1.226c.077.16.179.308.303.436ZM154.546 119.758a.655.655 0 0 1 .075-.376c.146.051.299.076.454.076l2.048-1.152c.32-.361.686-.679 1.088-.947a5.729 5.729 0 0 1 1.224-.482l.453-.135 3.778-2.122a.698.698 0 0 1 .159-.203.746.746 0 0 1 .189-.09l-3.899-1.174-1.05.587-.114.827-4.496 2.393a4.002 4.002 0 0 1-1.458.549 2.463 2.463 0 0 1-.582 0l-6.408 3.619c.051.302.137.597.257.88a2.806 2.806 0 0 1-1.051-.429l-1.314.752a57.72 57.72 0 0 1 2.758 1.919l7.889-4.492ZM181.976 104.276l-3.098-1.731-1.466.828a6.054 6.054 0 0 0 3.196 1.715l1.368-.812Z"/><path d="m198.638 122.489-11.697-20.53a3.475 3.475 0 0 0-2.092-1.621 3.489 3.489 0 0 0-2.631.319l-1.406.798.537.519c.559.556 1.133 1.121 1.655 1.715l.71-.399a.428.428 0 0 1 .323-.039c.109.029.202.1.259.197l11.705 20.538a.43.43 0 0 1-.166.58l-15.922 9.028c1.375.082 2.766-.113 4.141.045.495.062.987.15 1.473.263l11.804-6.666a3.46 3.46 0 0 0 1.744-3.458 3.442 3.442 0 0 0-.437-1.289ZM126.957 148.617l-5.501-9.674a.412.412 0 0 1-.054-.159.43.43 0 0 1 .212-.428l15.869-8.968c-.053-.12-.121-.241-.166-.361.224-.009.448.016.665.075l6.415-3.618c-.211-.068-.415-.151-.619-.226l-3.023-1.196-2.418 1.369 2.63 1.602c-.915-.556-2.781-.632-4.391-.609l-16.42 9.306a3.455 3.455 0 0 0-1.63 2.082 3.44 3.44 0 0 0 .323 2.62l4.776 8.381a6.89 6.89 0 0 1 .664-.15 9.904 9.904 0 0 1 1.829-.091c.28-.002.561.013.839.045ZM146.559 152.394c.269.24.575.436.906.579.34.151.794.512.529.752-1.224.557-2.735.143-3.937.753-.657.316-1.292.94-1.995.752a9.608 9.608 0 0 1 2.267 1.903l30.007-16.942c0-.12.038-.24.061-.368a1.54 1.54 0 0 1 .606-1.226 1.564 1.564 0 0 1 1.343-.279 3.98 3.98 0 0 1 1.156.12l3.741-2.114a13.971 13.971 0 0 0-1.814-2.452l-32.87 18.522ZM141.7 157.367a5.464 5.464 0 0 1-1.957-1.121l-5.985 3.385a.424.424 0 0 1-.582-.158l-5.29-9.231a3.679 3.679 0 0 0-1.579-.18c-.612.12-1.149.827-.816 1.346a1.77 1.77 0 0 1 1.511.933 4.86 4.86 0 0 1-1.065.64l4.534 7.982a3.466 3.466 0 0 0 2.124 1.657 3.494 3.494 0 0 0 2.674-.356l7.844-4.431-.091-.052a12.73 12.73 0 0 0-1.322-.414Z"/></g><path fill="#000" fill-opacity=".7" d="M107.673 130.501c4.609 3.371 8.463 19.561 8.811 34.404.347 14.843 7.556 39.873 8.418 43.973.861 4.1.544 10.013 5.894 1.783s20.999-22.517 27.52-17.77c6.522 4.747-4.458 20.704-10.405 29.295-5.947 8.592-6.551 23.721-13.677 33.193-7.126 9.471-13.564 23.773-20.546 23.555-6.982-.218-53.228 33.937-53.228 33.937l.906-46.749 41.561-67.709 4.746-67.912Z" opacity=".3"/><path fill="#fff" d="M162.11 195.186c-.234 1.467-8.373 12.202-13.156 20.237-4.783 8.035-9.264 22.02-10.466 24.074-1.201 2.054-15.868 14.881-19.889 20.245-4.02 5.364-11.198 7.734-18.369 12.789-4.61 3.25-18.975 20.02-28.655 31.598-5.38 6.432-9.317 11.285-9.317 11.285L.378 299.352s5.123-4.206 11.864-9.878h.045l.068-.053c11.078-9.366 26.516-22.585 30.778-27.573 6.868-8.034 16.435-17.581 16.435-17.581-.582-11.157.605-21.727-.446-25.744-.544-2.099-1.511-14.039-2.267-17.71-1.836-9.381-9.823-19.101-10.722-22.931-.9-3.829-11.441-20.132-6.295-23.141a4.763 4.763 0 0 1 3.143-.685c6.952.956 12.68 17.672 16.625 21.93a50.912 50.912 0 0 1 4.579 6.41c3.113 4.913 6.166 10.435 6.166 10.435 1.194-4.762-7.473-21.727-9.869-37.797-2.395-16.069-9.264-24.698 0-25.691a5.806 5.806 0 0 1 2.267.195c6.522 1.896 9.348 15.385 13.247 28.476.363 1.203 3.332 9.847 5.645 16.513a4452.97 4452.97 0 0 1 2.72 7.877c.295-8.185-2.267-15.799-2.69-23.217-.182-2.971.755-14.881-.423-26.782-1.013-10.044-.552-14.114 3.392-14.904a9.861 9.861 0 0 1 2.562-.12c6.839.429 9.264 18.522 9.264 25.579 0 4.1.703 12.105 1.293 18.108.43 4.341.8 7.636.8 7.636s1.195-9.968.303-31.469c-.204-4.71.106-8.08 1.965-9.442 1.02-.752 2.493-.88 4.609-.308 5.977 1.61 7.919 23.66 7.919 31.996 0 8.335 4.784 22.614 5.683 33.854.899 11.24 4.813 25.052 4.813 25.052s2.214.895 3.703.602c1.489-.293 11.811-15.475 11.811-15.475 4.806-10.39 14.161-13.542 19.254-12.376 2.342.534 3.854 1.971 3.491 4.048Z"/><path fill="#92E3A9" d="M162.11 195.186c-.234 1.467-8.373 12.202-13.156 20.237-4.783 8.035-9.264 22.02-10.466 24.074-1.201 2.054-15.869 14.881-19.889 20.245-4.02 5.364-11.198 7.734-18.369 12.789-4.61 3.25-18.975 20.02-28.655 31.598 1.066-4.198 3.454-9.562 9.695-14.716 10.836-8.96 11.486-15.986 17.312-21.937 5.826-5.951 16.088-4.168 19.776-11.285 3.687-7.117 16.548-13.692 19.238-19.944 2.691-6.252-2.69-7.576 2.094-15.099 4.783-7.523 9.423-9.351 8.743-12.3-.681-2.949-2.691-7.418 1.458-11.142 2.592-2.317 5.637-5.229 8.75-6.568 2.32.534 3.832 1.971 3.469 4.048ZM84.58 230.5c-1.987-.994-.393-2.972-1.79-4.62-1.399-1.647-4.588 8.991-5.29 9.028-.703.038-2.842-5.409-3.688-5.951-.846-.541-1.345 1.738-2.547 5.951-1.201 4.213-5.614 6.35-8.176 9.359-2.561 3.009-17.97 19.372-21.755 25.519-3.786 6.146-27.166 18.311-28.98 19.62 11.079-9.351 26.517-22.57 30.779-27.557 6.868-8.035 16.435-17.582 16.435-17.582-.582-11.157.605-21.727-.446-25.744-.544-2.099-1.511-14.039-2.267-17.71-1.836-9.381-9.823-19.101-10.722-22.931-.9-3.829-11.441-20.132-6.295-23.141a4.756 4.756 0 0 1 3.143-.684c-1.17.827-2.312 2.016-1.246 3.761 1.896 3.055 3.982 6.267 3.982 9.645 0 3.378 5.78 8.132 8.025 11.285 2.244 3.152.151 2.038 1.647 6.357 1.496 4.318 3.287 3.415 4.179 7.779.892 4.363 5.879 7.147 5.085 12.586-.793 5.439 2.388 13.008 2.388 13.008s2.592-7.336 1.648-11.285c-.945-3.95.15-8.93-.756-10.269-.756-1.204-2.826-9.374-3.778-14.452 3.113 4.912 6.166 10.434 6.166 10.434 1.194-4.762-7.474-21.727-9.869-37.796-2.395-16.07-9.264-24.699 0-25.692a5.806 5.806 0 0 1 2.267.196c3.952 7.35 1.201 12.789.325 15.979-.96 3.476 4.753 12.398 5.6 18.545.755 5.74 2.312 5.145 2.516 5.04-.174.158-1.648 1.655-.756 5.913.93 4.514 7.556 15.235 7.556 18.229 0 2.994-.543 7.922-.543 9.381 0 1.46 5.289 11.225 5.924 13.783.635 2.558-.25-4.928 1.194-7.523 1.443-2.596 2.206-11.654 2.395-11.165 2.486 6.29-.355 33.682-2.35 32.704ZM88.865 163.272c-1.693 2.551-1.648 22.457-4.534 22.525-1.398 0-2.078-5.003-2.645-11.285a4452.97 4452.97 0 0 1 2.72 7.877c.295-8.185-2.267-15.799-2.69-23.217-.181-2.971.756-14.881-.423-26.782-1.013-10.044-.552-14.114 3.393-14.904.831 2.679 2.871 5.838 3.393 8.772.71 4.048-.68 7.396-1.874 7.9-1.194.504-1.398 3.114.098 3.498 1.496.384 0 19.38.695 21.817.695 2.438 3.567 1.287 1.867 3.799ZM104.393 140.989c-3.106 1.361-3.272 3.799-4.201 7.297-.93 3.498 1.33 8.607 0 16.634-1.33 8.027 3.521 13.203 0 22.186-3.522 8.982-1.867-7.524-2.456-15.047a92.51 92.51 0 0 1 .045-10.999c.431 4.341.801 7.636.801 7.636s1.194-9.968.303-31.469c-.205-4.71.105-8.08 1.964-9.442 3.189 2.882 6.189 12.045 3.544 13.204Z" opacity=".4"/><path stroke="#263238" stroke-linecap="round" stroke-linejoin="round" d="M62.258 315.421s30.793-37.796 37.972-42.882c7.178-5.086 14.357-7.44 18.369-12.789 4.013-5.349 18.695-18.161 19.889-20.245 1.194-2.084 5.683-16.07 10.466-24.074 4.783-8.005 12.922-18.808 13.156-20.238 1.043-6.552-15.695-6.846-22.723 8.336 0 0-10.314 15.174-11.81 15.475-1.497.301-3.703-.602-3.703-.602s-3.914-13.805-4.814-25.052c-.899-11.247-5.682-25.541-5.682-33.854 0-8.313-1.942-30.386-7.919-31.996-5.978-1.61-6.884 2.467-6.575 9.78.892 21.501-.302 31.469-.302 31.469s-2.093-18.68-2.093-25.744-2.425-25.158-9.264-25.579c-6.28-.399-7.156 3.115-5.955 15.046 1.202 11.932.242 23.811.423 26.783.446 7.44 3.023 15.046 2.69 23.217 0 0-7.775-22.412-8.372-24.406-4.33-14.61-7.33-29.656-15.551-28.753-9.265.993-2.388 9.622 0 25.691 2.387 16.07 11.062 33.035 9.869 37.797 0 0-7.172-12.963-10.746-16.845-4.534-4.882-11.38-26.158-19.753-21.245-5.146 3.009 5.426 19.365 6.318 23.194.891 3.829 8.886 13.542 10.722 22.931.756 3.671 1.7 15.61 2.267 17.709 1.05 4.018-.136 14.588.446 25.744 0 0-9.566 9.525-16.435 17.56-6.87 8.034-42.755 37.503-42.755 37.503"/><path stroke="#263238" stroke-linecap="round" stroke-linejoin="round" d="M123.874 218.395a14.02 14.02 0 0 1 0 10.57M126.39 219.027a4.995 4.995 0 0 1 1.791 5.619M98.582 168.697s2.396 16.814 1.345 19.936M84.383 182.389a15.73 15.73 0 0 1 0 4.905M70.336 192.801s.446 2.535 0 3.129M146.113 207.087s2.705 1.46 3.589 3.574M84.482 137.227a5.396 5.396 0 0 0 4.98-1.347M85.396 161.406s5.38 1.783 7.33 0M102.92 166.613s3.581-1.34 5.977-.595M68.689 171.375s2.84-3.724 5.085-2.679M57.029 182.389s-2.539 1.188-3.287 2.452M59.568 244.267a14.052 14.052 0 0 0 1.647-2.257c.446-.895-.15-10.42 0-16.551M90.927 281.762c-3.52 3.927-14.32 11.044-18.649 15.355M105.156 192.801c-1.79 5.063.152 11.458 0 14.294-.151 2.836-.755 15.798-.755 15.798M88.865 192.801c-2.388 4.017-1.64 9.374-.892 12.037.748 2.663.083 13.542.083 13.542M63.157 205.598a14.415 14.415 0 0 0 1.512 7.591M77.953 197.713c-1.345 4.913.453 7.14.605 7.885"/><path fill="#000" fill-opacity=".7" d="m199.363 165.274-2.546-14.716a4.888 4.888 0 0 1 .897-3.755 4.94 4.94 0 0 1 3.342-1.955l5.705-.752s-1.904-3.844 4.224-15.046c6.129-11.203 35.592-40.957 57.929 9.027 22.337 49.984 42.747 151.841 42.747 151.841s-60.294-69.906-62.213-73.487c-1.919-3.581-20.274-1.437-24.513-11.044-4.24-9.607-13.141-37.021-13.141-37.021l-6.892.94a4.965 4.965 0 0 1-3.585-.906 4.922 4.922 0 0 1-1.954-3.126Z" opacity=".3"/><path fill="#92E3A9" d="m252.501 131.509-11.569 2.092-16.08 2.911-21.06 3.815a3.126 3.126 0 0 1-3.188-1.375 3.106 3.106 0 0 1-.447-1.131l-4.625-25.315a3.116 3.116 0 0 1 .509-2.326 3.138 3.138 0 0 1 2.008-1.293l12.249-2.257 17.818-3.22 18.642-3.378a3.145 3.145 0 0 1 2.34.502 3.106 3.106 0 0 1 1.295 2.004l4.624 25.315a3.086 3.086 0 0 1-.488 2.354 3.12 3.12 0 0 1-2.028 1.302Z"/><mask id="b" width="61" height="42" x="195" y="99" maskUnits="userSpaceOnUse" style="mask-type:luminance"><path fill="#fff" d="m252.501 131.509-11.569 2.092-16.08 2.911-21.06 3.815a3.126 3.126 0 0 1-3.188-1.375 3.106 3.106 0 0 1-.447-1.131l-4.625-25.315a3.116 3.116 0 0 1 .509-2.326 3.138 3.138 0 0 1 2.008-1.293l12.249-2.257 17.818-3.22 18.642-3.378a3.145 3.145 0 0 1 2.34.502 3.106 3.106 0 0 1 1.295 2.004l4.624 25.315a3.086 3.086 0 0 1-.488 2.354 3.12 3.12 0 0 1-2.028 1.302Z"/></mask><g fill="#000" fill-opacity=".7" mask="url(#b)"><path d="m244.317 114.703-3.385 18.898-16.08 2.911c-4.655-2.038-12.333-5.589-13.867-7.523-1.828-2.257-1.571-15.558-.687-22.359l17.818-3.22c6.279 4.311 16.201 11.293 16.201 11.293ZM206.988 139.747l-3.196.58a3.136 3.136 0 0 1-2.34-.502 3.092 3.092 0 0 1-1.295-2.003l-4.625-25.316a3.116 3.116 0 0 1 .509-2.326 3.138 3.138 0 0 1 2.008-1.293l3.188-.579a3.129 3.129 0 0 0-2.005 1.293 3.106 3.106 0 0 0-.503 2.326l4.624 25.315a3.106 3.106 0 0 0 2.415 2.487c.401.086.816.092 1.22.018Z" opacity=".3"/></g><path stroke="#263238" stroke-linecap="round" stroke-linejoin="round" d="m252.501 131.509-11.569 2.092-16.08 2.911-21.06 3.815a3.126 3.126 0 0 1-3.188-1.375 3.106 3.106 0 0 1-.447-1.131l-4.625-25.315a3.116 3.116 0 0 1 .509-2.326 3.138 3.138 0 0 1 2.008-1.293l12.249-2.257 17.818-3.22 18.642-3.378a3.145 3.145 0 0 1 2.34.502 3.106 3.106 0 0 1 1.295 2.004l4.624 25.315a3.086 3.086 0 0 1-.488 2.354 3.12 3.12 0 0 1-2.028 1.302Z"/><path stroke="#263238" stroke-linecap="round" stroke-linejoin="round" stroke-width=".996" d="m249.057 98.695-48.513 8.871a3.105 3.105 0 0 0-2.502 3.613l4.65 25.208a3.116 3.116 0 0 0 3.629 2.491l48.513-8.871a3.104 3.104 0 0 0 2.502-3.613l-4.65-25.207a3.116 3.116 0 0 0-3.629-2.492Z"/><path stroke="#263238" stroke-linecap="round" stroke-linejoin="round" d="m247.7 101.739-45.716 8.272a1.505 1.505 0 0 0-1.217 1.749l4.553 24.945a1.51 1.51 0 0 0 1.757 1.211l45.717-8.271a1.505 1.505 0 0 0 1.216-1.75l-4.553-24.944a1.511 1.511 0 0 0-1.757-1.212Z"/><path stroke="#263238" stroke-linecap="round" stroke-linejoin="round" d="m255.697 130.93-3.174.572a3.128 3.128 0 0 0 1.996-1.293c.467-.677.646-1.51.498-2.318l-4.624-25.316a3.109 3.109 0 0 0-2.415-2.486 3.135 3.135 0 0 0-1.22-.019l3.196-.58a3.146 3.146 0 0 1 2.336.507 3.123 3.123 0 0 1 1.299 1.999l4.625 25.315a3.116 3.116 0 0 1-.509 2.326 3.138 3.138 0 0 1-2.008 1.293Z"/><path fill="#fff" d="m347.607 212.023-31.291 83.567s-13.088-24.826-25.179-47.802c-9.657-18.372-18.679-35.6-19.896-38.135-2.728-5.71-12.045-17.672-12.045-17.672s-9.559-5.447-13.934-14.934c-4.376-9.486-9.189-43.423-9.189-43.423s-12.567-4.71-15.566-6.771c-3-2.062-5.736-21.11-5.736-23.285 0-2.174 3.023-6.53 3.023-6.53s-.673-3.19 3.166-6.41a17.664 17.664 0 0 1 4.133-2.52h.076s-.499-7.2 3.264-9.298c.18-.102.367-.19.56-.264 3.355-1.286 14.357-2.949 14.357-2.949a15.703 15.703 0 0 1 5.327-3.062c1.95-.534 12.65 1.941 18.627 3.408 2.403.587 4.043 1.008 4.043 1.008s10.11.46 12.022 1.595a19.018 19.018 0 0 1 3.627 3.077l.189.219s9.015 1.865 10.927 5.153c1.912 3.288 2.728 19.598 1.368 30.198-1.361 10.6 1.08 28.588 1.08 28.588s2.819 13.895 5.003 19.169c2.183 5.274 42.044 47.073 42.044 47.073Z"/><path fill="#92E3A9" d="M291.137 247.788c-9.657-18.372-18.679-35.6-19.896-38.135-2.728-5.71-12.045-17.672-12.045-17.672s-9.559-5.447-13.934-14.934c-4.376-9.487-9.189-43.424-9.189-43.424s-12.567-4.709-15.566-6.77c-3-2.062-5.736-21.11-5.736-23.285 0-2.174 3.023-6.53 3.023-6.53s-.673-3.19 3.166-6.41v4.575c-.091 4.31 5.01 30.303 6.272 29.513 1.262-.79 3.211-2.693 2.698-4.371 0 0-2.471-10.089-4.806-32.237h.075s-.499-7.2 3.265-9.298a17.213 17.213 0 0 0-1.232 4.882c-.083 3.506 4.103 33.546 5.743 34.306 1.64.76 5.796-3.243 5.796-3.243s-1.421-8.523-.915-12.157c0 0 12.642 7.673 13.02 16.385.038.956 2.464 14.61 2.464 14.61s-10.874 20.614.226 39.422c0 0-5.644-3.371-6.989-8.727 0 0-1.64 15.753 10.019 24.074 0 0 8.366-8.178 16.625-9.216 0 0 .151.542-5.38 4.883-5.532 4.341-6.28 6.274-6.28 6.274s5.985-6.019 10.768-6.274c0 0-4.934 5.68-4.783 6.868.151 1.189 14.108 24.947 19.186 41.521 2.07 6.921 3.483 11.916 4.405 15.37ZM251.949 90.117s4.028 3.01 5.222 0a17.216 17.216 0 0 0 1.292-5.056s1.549-.707 3.023 3.01c1.473 3.716 16.246 4.664 19.707 6.567 3.461 1.904 4.836 0 4.836 0a4.499 4.499 0 0 1 1.134 5.59c-1.678 3.453 3.075 3.762 4.919 1.219 1.844-2.543.415 7.275-4.141 8.275 0 0 .128 4.288-2.804 7.23h2.486s-6.619 5.229-8.38 5.515c-1.76.285 6.552 3.212 5.01 3.829-1.541.617-5.909.564-5.909.564s2.826 1.949 2.849 3.235c.023 1.286-1.338 2.257-1.95 1.181-.612-1.076-5.493-16.483-7.926-22.178-2.434-5.695-12.484-10.202-19.368-18.981ZM286.989 81.57c-8.479-2.309-19.851-5.597-19.851-5.597l.158-.082c2.403.586 4.043 1.008 4.043 1.008s10.111.459 12.023 1.595a19.053 19.053 0 0 1 3.627 3.077Z" opacity=".4"/><path fill="#92E3A9" d="M275.065 94.849c-7.376-1.505-12.642 4.77-12.642 4.77s7.329 6.605 8.954 9.441c1.625 2.837 4.322 12.398 4.322 12.398 3.091.497 8.789-2.678 10.156-11.104 1.368-8.426-3.453-14.008-10.79-15.505Z"/><path stroke="#263238" stroke-linecap="round" stroke-linejoin="round" d="M316.316 295.59s-42.317-80.227-45.075-85.937c-2.758-5.71-12.045-17.672-12.045-17.672s-9.559-5.447-13.934-14.934c-4.376-9.486-9.189-43.424-9.189-43.424s-12.567-4.709-15.566-6.77c-3-2.062-5.736-21.11-5.736-23.285 0-2.174 3.023-6.53 3.023-6.53s-1.088-5.153 7.375-8.967c0 0-.544-7.892 3.824-9.562 3.355-1.287 14.357-2.95 14.357-2.95a15.703 15.703 0 0 1 5.327-3.061c2.728-.753 22.67 4.416 22.67 4.416s10.11.459 12.022 1.595a19.339 19.339 0 0 1 3.786 3.257s9.015 1.866 10.927 5.154c1.911 3.287 2.728 19.597 1.367 30.198-1.36 10.6 1.081 28.588 1.081 28.588s2.819 13.895 5.002 19.169c2.184 5.274 42.075 47.148 42.075 47.148"/><path stroke="#263238" stroke-linecap="round" stroke-linejoin="round" d="M280.49 132.518s-1.912-.407-4.368-9.382c-2.455-8.975-3.105-13.173-8.198-18.492-3.612-3.761-11.879-9.908-15.975-14.527-4.095-4.62-8.622-8.35-12.158-5.492-2.826 2.257-4.67 8.118-2.184 17.161 3.196 11.615 13.277 17.145 13.277 17.145l2.463 14.61s-10.692 21.321 1.36 41.445"/><path stroke="#263238" stroke-linecap="round" stroke-linejoin="round" d="M262.385 99.619s5.289-6.267 12.642-4.77c7.352 1.497 12.128 7.072 10.79 15.505-1.337 8.434-7.065 11.601-10.155 11.104M243.327 75.545a48.99 48.99 0 0 0-2.539 8.538M238.854 105.005s.635 9.291 1.949 12.143c1.315 2.851 3.499 5.168 4.451 8.84.952 3.671 1.096 9.381 1.368 10.201.272.82 1.851 1.031 1.851 1.031 2.267.052 3.181-1.121 4.489-2.912"/><path stroke="#263238" stroke-linecap="round" stroke-linejoin="round" d="M225.192 88.056s2.047 19.846 3.687 28.279c1.64 8.434 4.534 9.653 9.287 12.376 4.753 2.723 7.375 8.275 7.791 9.11.415.836 1.972.926 1.972.926a5.54 5.54 0 0 0 2.564-.878 5.505 5.505 0 0 0 1.834-1.989"/><path stroke="#263238" stroke-linecap="round" stroke-linejoin="round" d="M217.801 97.023c-.514.79 3.869 20.945 6.151 26.79 2.282 5.846 2.539 6.771 8.577 8.426 6.038 1.655 10.624 4.409 12.257 3.438M259.732 85.874s3.136 7.478 1.066 12.398M271.339 76.899a108.423 108.423 0 0 0 15.816 4.867M292.104 102.741s-2.402 4.371-6.045 5.311M286.052 97.979s-.862 2.257-1.776 2.881M289.074 115.929s-5.463 4.115-10.707 5.183M276.122 123.144s2.267 2.851 8.154 3.122M258.44 110.663s5.35-5.116 8.403-4.409M268.914 111.701s-4.051 3.009-4.791 3.009"/><path stroke="#263238" stroke-linecap="round" stroke-linejoin="round" d="M227.209 127.658s1.345.248 2.396-1.37M231.992 120.33s3.25-2.001 5.373-2.385M260.617 188.189c.672-.594 6.952-5.65 10.836-7.44M268.762 185.797c-.445-.136-4.012 3.581-5.894 5.07M270.531 196.818s11.962 22.57 14.652 31.597M305.563 164.905c1.012 5.544 4.299 9.629 6.098 11.841"/><path fill="#fff" d="M267.856 97.023c-1.738 1.069.09 4.559 1.058 6.342.967 1.783 5.289 4.62 6.188 7.298.9 2.678 6.582 2.603 8.313 0 1.73-2.603 1.511-7.802-3.204-11.759-4.716-3.957-9.884-3.385-12.355-1.88Z" opacity=".4"/><path stroke="#263238" stroke-linecap="round" stroke-linejoin="round" d="M234.675 246.953a34.653 34.653 0 0 0-22.445 3.779 34.436 34.436 0 0 0-15.207 16.865 34.242 34.242 0 0 0-1.36 22.623 34.384 34.384 0 0 0 13.078 18.551M249.07 252.949a34.405 34.405 0 0 0-10.579-5.131M245.594 310.907a34.457 34.457 0 0 0 11.681-10.533 34.226 34.226 0 0 0 4.395-30.236 34.348 34.348 0 0 0-8.202-13.398M247.257 321.755l2.063 1.806-3.212-10.931M223.083 314.729a34.546 34.546 0 0 0 15.249-.82l6.507 5.718M215.164 312.397a34.9 34.9 0 0 0 3.96 1.422"/><path stroke="#263238" stroke-linecap="round" stroke-linejoin="round" d="M231.607 264.121a17.393 17.393 0 0 1 10.796 6.439 17.251 17.251 0 0 1 3.6 12.005 17.276 17.276 0 0 1-5.484 11.278 17.42 17.42 0 0 1-11.691 4.636 17.427 17.427 0 0 1-11.77-4.435 17.248 17.248 0 0 1-2.285-23.248 17.396 17.396 0 0 1 10.683-6.623"/><path stroke="#263238" stroke-linecap="round" stroke-linejoin="round" d="M225.456 300.074a19.265 19.265 0 0 1-12.472-7.809 19.1 19.1 0 0 1-3.276-14.302M246.796 287.691a19.183 19.183 0 0 1-5.937 8.338 19.309 19.309 0 0 1-9.396 4.12M211.189 273.178a19.214 19.214 0 0 1 9.641-9.493 19.333 19.333 0 0 1 13.535-.813 19.245 19.245 0 0 1 10.716 8.271 19.1 19.1 0 0 1 2.584 13.252"/><path stroke="#263238" stroke-linecap="round" stroke-linejoin="round" stroke-width="2" d="m240.237 274.27.219-.234M237.154 277.579l1.534-1.647M218.338 280.002l7.413 9.818 10.057-10.796"/></g><defs><clipPath id="a"><path fill="#fff" d="M0 .937h348v323H0z"/></clipPath></defs></svg>