<svg width="20" height="21" viewBox="0 0 20 21" fill="none" xmlns="http://www.w3.org/2000/svg">
<g clip-path="url(#clip0_96_193)">
<path d="M9.24516 0.937256H10.4773C10.8071 0.981349 11.1406 1.01446 11.4667 1.06958C13.482 1.41314 15.3431 2.38054 16.7946 3.83904C18.2461 5.29755 19.2169 7.17567 19.5739 9.21579C19.6391 9.58323 19.6753 9.95068 19.7261 10.3181V11.5674C19.6971 11.8062 19.6717 12.0451 19.6391 12.2803C19.3724 14.4108 18.415 16.3909 16.9174 17.9095C14.3805 20.4816 11.3326 21.4186 7.82812 20.7168C5.5047 20.263 3.43472 18.9394 2.02955 17.0093C1.00235 15.6454 0.338696 14.0364 0.102424 12.3372C-0.133848 10.6379 0.0651953 8.90563 0.680459 7.30698C1.29572 5.70833 2.3065 4.2972 3.61545 3.20929C4.9244 2.12139 6.48749 1.39329 8.1543 1.09523C8.52033 1.04379 8.88637 0.988698 9.24516 0.937256ZM10.6948 9.23786V8.50297C10.6948 7.49985 10.6948 7.48514 11.6914 7.48514H12.467V5.5156C12.4465 5.51329 12.4258 5.51329 12.4054 5.5156C11.6805 5.5156 10.9775 5.48256 10.2671 5.54502C9.86139 5.56271 9.47135 5.70912 9.15208 5.9636C8.83281 6.21808 8.60042 6.56782 8.48769 6.9634C8.39 7.31174 8.33404 7.67072 8.32099 8.03263C8.29563 8.43314 8.32099 8.83737 8.32099 9.2636H7.20841V11.3212H8.32825V17.0975H10.7093V11.3028H12.3111L12.5141 9.25993L10.6948 9.23786Z" fill="white"/>
<path d="M10.7092 9.23779H12.5213L12.3184 11.2808H10.7165V17.0753H8.33546V11.2991H7.21558V9.24146H8.3282C8.3282 8.81523 8.31008 8.411 8.3282 8.01049C8.34125 7.64858 8.39721 7.2896 8.4949 6.94126C8.60763 6.54568 8.84002 6.19594 9.15929 5.94146C9.47856 5.68698 9.8686 5.54057 10.2743 5.52288C10.9992 5.46042 11.6986 5.49722 12.4126 5.49355C12.4331 5.49124 12.4537 5.49124 12.4742 5.49355V7.463H11.6986C10.7201 7.463 10.702 7.46301 10.702 8.48083L10.7092 9.23779Z" fill="#2F383B"/>
</g>
<defs>
<clipPath id="clip0_96_193">
<rect width="19.726" height="20" fill="white" transform="translate(0 0.937256)"/>
</clipPath>
</defs>
</svg>
