<svg width="20" height="21" viewBox="0 0 20 21" fill="none" xmlns="http://www.w3.org/2000/svg">
<g clip-path="url(#clip0_96_203)">
<path d="M10.0378 20.937C4.58936 20.937 0.171661 16.4469 0.177985 10.9189C0.184309 5.40574 4.61149 0.929009 10.0531 0.937022C15.4947 0.945036 19.9077 5.42444 19.904 10.944C19.9003 16.4635 15.4795 20.9386 10.0378 20.937ZM16.1155 10.9472H16.1334C16.1334 10.1993 16.1382 9.45137 16.1308 8.70774C16.1325 8.41439 16.114 8.12129 16.0755 7.83055C15.8858 6.5511 15.2618 5.59699 14.0387 5.11299C13.5339 4.91829 12.9978 4.82029 12.4577 4.82398C10.9119 4.81828 9.36716 4.81828 7.82345 4.82398C7.49506 4.82293 7.16712 4.84848 6.84274 4.90038C5.60011 5.11032 4.67895 5.75512 4.21836 6.98115C4.03588 7.48239 3.94533 8.01322 3.95118 8.54747C3.95118 10.0999 3.94802 11.6529 3.95118 13.2058C3.94942 13.4918 3.9688 13.7775 4.00915 14.0606C4.19096 15.2476 4.75167 16.1691 5.86308 16.682C6.40564 16.9261 6.99325 17.0503 7.58684 17.0463C9.22365 17.0559 10.8603 17.0559 12.4967 17.0463C13.1323 17.0421 13.7525 16.9213 14.327 16.6296C15.5063 16.0313 16.0259 14.9933 16.1045 13.7219C16.1614 12.8009 16.1155 11.8719 16.1155 10.9456V10.9472Z" fill="white"/>
<path d="M16.1156 10.9458C16.1156 11.8722 16.1615 12.8012 16.1046 13.7238C16.026 14.9952 15.5064 16.0332 14.327 16.6315C13.7526 16.9232 13.1324 17.0439 12.4968 17.0482C10.8604 17.0596 9.22373 17.0596 7.58692 17.0482C6.99334 17.0522 6.40572 16.928 5.86316 16.6839C4.75176 16.171 4.19105 15.2495 4.00924 14.0625C3.96889 13.7794 3.94951 13.4937 3.95127 13.2077C3.946 11.6548 3.94811 10.1018 3.95127 8.54935C3.94535 8.01492 4.0359 7.4839 4.21845 6.98249C4.67903 5.75379 5.6002 5.11274 6.84282 4.90172C7.16646 4.8494 7.4937 4.82332 7.82143 4.82372C9.36725 4.81625 10.912 4.81625 12.4557 4.82372C12.9958 4.82003 13.5319 4.91803 14.0367 5.11273C15.2598 5.59673 15.8811 6.55085 16.0735 7.8303C16.1125 8.12046 16.1315 8.41303 16.1304 8.70588C16.1378 9.45378 16.133 10.2017 16.133 10.9453L16.1156 10.9458ZM10.0458 5.97763V5.95733C9.88773 5.95733 9.72964 5.95733 9.57154 5.95733C8.77 5.97496 7.96635 5.96107 7.16797 6.02197C6.24575 6.09249 5.56173 6.561 5.25661 7.47451C5.14248 7.82127 5.08186 8.18383 5.0769 8.54935C5.05741 10.089 5.06689 11.6291 5.07005 13.1693C5.07084 13.3756 5.08298 13.5818 5.10641 13.7868C5.23921 14.9658 6.01757 15.7634 7.17798 15.8489C7.93684 15.9023 8.7015 15.9087 9.46351 15.9066C10.6134 15.9028 11.7654 15.9066 12.9126 15.8441C13.8359 15.7907 14.5199 15.3067 14.8235 14.3942C14.9396 14.034 15 13.6577 15.0026 13.2788C15.0221 11.7461 15.0126 10.2124 15.0095 8.67917C15.0089 8.45932 14.9952 8.2397 14.9684 8.02154C14.8451 7.01561 14.2195 6.3003 13.2515 6.07646C12.9886 6.01678 12.7203 5.98491 12.451 5.98137C11.6489 5.97229 10.8479 5.97977 10.0458 5.97977V5.97763Z" fill="white"/>
<path d="M10.0285 14.1875C9.60541 14.1869 9.18667 14.1012 8.79652 13.9354C8.40636 13.7695 8.05254 13.5269 7.75556 13.2215C7.45857 12.916 7.22433 12.5539 7.06639 12.156C6.90846 11.7582 6.82997 11.3325 6.83548 10.9037C6.83861 10.4749 6.92563 10.051 7.09151 9.65649C7.25738 9.26203 7.49882 8.90484 7.80182 8.60563C8.10482 8.30642 8.46338 8.07112 8.85671 7.91337C9.25005 7.75561 9.67036 7.67854 10.0933 7.68661C10.9409 7.69885 11.749 8.05152 12.3403 8.66719C12.9317 9.28285 13.2578 10.1112 13.2473 10.9704C13.2409 11.8296 12.8982 12.6511 12.2947 13.2543C11.6911 13.8575 10.876 14.1932 10.0285 14.1875ZM10.068 8.84105C9.79632 8.83674 9.52649 8.88686 9.27397 8.98852C9.02146 9.09019 8.79123 9.24141 8.5965 9.43349C8.40178 9.62558 8.24639 9.85475 8.13925 10.1079C8.03212 10.361 7.97534 10.6331 7.97218 10.9085C7.94741 12.0592 8.86067 13.0101 10.0121 13.033C11.1509 13.056 12.0826 12.1366 12.1074 10.9656C12.1119 10.6902 12.0627 10.4165 11.9625 10.1604C11.8623 9.90428 11.7132 9.67078 11.5236 9.47332C11.3341 9.27587 11.1079 9.11836 10.8581 9.00985C10.6083 8.90133 10.3398 8.84397 10.068 8.84105Z" fill="white"/>
<path d="M13.2773 8.34954C13.1936 8.35217 13.1102 8.33791 13.0319 8.30757C12.9536 8.27724 12.8821 8.23144 12.8215 8.17284C12.7608 8.11424 12.7122 8.044 12.6786 7.96621C12.645 7.88842 12.6269 7.80463 12.6255 7.7197C12.6232 7.63332 12.6381 7.54735 12.6691 7.46688C12.7002 7.3864 12.7468 7.31305 12.8063 7.25116C12.8658 7.18926 12.9369 7.14007 13.0155 7.1065C13.094 7.07292 13.1784 7.05564 13.2636 7.05567C13.4326 7.05481 13.595 7.12174 13.7155 7.24184C13.8359 7.36194 13.9046 7.52547 13.9066 7.69673C13.9084 7.86785 13.8432 8.0327 13.7252 8.1551C13.6072 8.2775 13.4461 8.34743 13.2773 8.34954Z" fill="white"/>
<path d="M10.0459 5.97969C10.8479 5.97969 11.6505 5.97221 12.4521 5.98396C12.7214 5.9875 12.9897 6.01937 13.2526 6.07905C14.2206 6.30289 14.8461 7.0182 14.9695 8.02413C14.9963 8.24229 15.01 8.4619 15.0106 8.68175C15.0137 10.215 15.0232 11.7487 15.0037 13.2814C15.0011 13.6603 14.9407 14.0366 14.8245 14.3968C14.521 15.3092 13.837 15.7948 12.9137 15.8467C11.7665 15.9113 10.6145 15.9054 9.4646 15.9092C8.70258 15.9092 7.93635 15.9092 7.17907 15.8515C6.01971 15.766 5.2403 14.9684 5.1075 13.7894C5.08407 13.5844 5.07193 13.3782 5.07114 13.1718C5.06798 11.6317 5.05849 10.0915 5.07799 8.55194C5.08295 8.18641 5.14356 7.82386 5.25769 7.47709C5.56281 6.56358 6.24684 6.09508 7.16906 6.02456C7.96744 5.96366 8.77109 5.97755 9.57263 5.95992C9.73072 5.95672 9.88882 5.95992 10.0469 5.95992L10.0459 5.97969ZM10.0285 14.1874C10.876 14.1931 11.6911 13.8574 12.2947 13.2542C12.8982 12.651 13.2409 11.8295 13.2473 10.9703C13.2578 10.1111 12.9317 9.28275 12.3403 8.66709C11.749 8.05142 10.9409 7.69875 10.0933 7.68651C9.67036 7.67844 9.25005 7.75551 8.85672 7.91327C8.46338 8.07102 8.10483 8.30632 7.80182 8.60553C7.49882 8.90474 7.25739 9.26193 7.09151 9.65639C6.92563 10.0509 6.83861 10.4748 6.83548 10.9036C6.82997 11.3324 6.90846 11.7581 7.06639 12.1559C7.22433 12.5538 7.45858 12.9159 7.75556 13.2214C8.05254 13.5268 8.40636 13.7694 8.79652 13.9353C9.18667 14.1011 9.60541 14.1868 10.0285 14.1874ZM13.2773 8.34947C13.4461 8.34736 13.6072 8.27742 13.7252 8.15502C13.8431 8.03263 13.9084 7.86777 13.9065 7.69666C13.9046 7.5254 13.8359 7.36187 13.7154 7.24177C13.595 7.12166 13.4326 7.05474 13.2636 7.0556C13.1784 7.05557 13.094 7.07285 13.0154 7.10643C12.9369 7.14 12.8658 7.18919 12.8063 7.25109C12.7468 7.31298 12.7002 7.38633 12.6691 7.4668C12.638 7.54728 12.6232 7.63325 12.6254 7.71963C12.6269 7.80456 12.6449 7.88835 12.6786 7.96614C12.7122 8.04393 12.7608 8.11416 12.8214 8.17277C12.8821 8.23137 12.9536 8.27716 13.0319 8.3075C13.1101 8.33784 13.1936 8.3521 13.2773 8.34947Z" fill="#2F383B"/>
<path d="M10.068 8.84106C10.34 8.84384 10.6088 8.90115 10.8588 9.0097C11.1089 9.11825 11.3352 9.27588 11.5249 9.47352C11.7146 9.67116 11.8638 9.9049 11.964 10.1613C12.0641 10.4176 12.1132 10.6915 12.1085 10.9672C12.0837 12.1382 11.152 13.0576 10.0132 13.0347C8.86176 13.0117 7.9485 12.0608 7.97327 10.9101C7.97622 10.6346 8.03281 10.3625 8.13979 10.1092C8.24677 9.85601 8.40204 9.62669 8.59667 9.43445C8.7913 9.24221 9.02147 9.09083 9.27397 8.989C9.52647 8.88717 9.79631 8.83689 10.068 8.84106Z" fill="#2F383B"/>
</g>
<defs>
<clipPath id="clip0_96_203">
<rect width="19.726" height="20" fill="white" transform="translate(0.178101 0.937256)"/>
</clipPath>
</defs>
</svg>
