<svg width="21" height="21" viewBox="0 0 21 21" fill="none" xmlns="http://www.w3.org/2000/svg">
<path d="M10.9315 20.937H9.6986C9.65714 20.9225 9.61451 20.9117 9.57121 20.9047C8.73771 20.8527 7.91575 20.6803 7.13011 20.3929C3.54792 19.0476 1.37326 16.4761 0.606136 12.6785C0.53165 12.3133 0.503396 11.9345 0.452026 11.5626V10.3105C0.463328 10.2541 0.476169 10.1978 0.486443 10.1409C0.598943 9.50235 0.660074 8.84918 0.830622 8.22679C2.55408 1.94548 9.67291 -0.993275 15.2584 2.2945C17.8911 3.84395 19.4707 6.18953 20.0296 9.23315C20.0948 9.58999 20.1293 9.95206 20.1781 10.312V11.5239C20.1673 11.5865 20.1539 11.6486 20.1452 11.7118C20.0938 12.1041 20.0578 12.5006 19.9839 12.8887C19.2133 16.9147 16.0032 20.095 12.0133 20.7831C11.6543 20.8457 11.2911 20.8864 10.9315 20.937ZM8.81247 9.18359V16.1932H10.9366V15.9548C10.9366 14.8592 10.9335 13.7678 10.9366 12.6748C10.9366 12.2835 10.9685 11.8923 11.1457 11.5344C11.3769 11.0648 11.8315 10.8562 12.4525 10.9365C12.8861 10.9887 13.181 11.2824 13.2745 11.7911C13.3228 12.0531 13.3479 12.319 13.3495 12.5856C13.3577 13.7177 13.3536 14.8503 13.3541 15.9824V16.1911H15.4962C15.4998 16.1269 15.506 16.0763 15.506 16.0252C15.506 14.7731 15.5193 13.5262 15.4983 12.2768C15.4918 11.7764 15.4416 11.2776 15.3483 10.7863C15.1875 9.96353 14.7359 9.35157 13.9017 9.13142C13.5543 9.04003 13.1961 8.9979 12.8373 9.00621C12.0339 9.02603 11.3743 9.35575 10.9274 10.0606C10.9027 10.0866 10.8755 10.11 10.8462 10.1305V9.18463L8.81247 9.18359ZM7.43473 16.1921V9.18985H5.30905V16.1921H7.43473ZM6.36264 8.21009C6.61 8.21008 6.85178 8.13551 7.05736 7.99581C7.26294 7.85612 7.42306 7.6576 7.51744 7.42539C7.61181 7.19319 7.63619 6.93776 7.58748 6.69147C7.53878 6.44518 7.41917 6.21912 7.24384 6.04192C7.0685 5.86473 6.84532 5.74439 6.60257 5.69614C6.35982 5.6479 6.10844 5.67392 5.88026 5.77091C5.65209 5.8679 5.45741 6.0315 5.32087 6.24097C5.18434 6.45044 5.11211 6.69636 5.11333 6.94757C5.11536 7.28295 5.2478 7.60394 5.4818 7.8406C5.7158 8.07727 6.0324 8.21045 6.36264 8.21113V8.21009Z" fill="white"/>
</svg>
