<svg width="21" height="21" viewBox="0 0 21 21" fill="none" xmlns="http://www.w3.org/2000/svg">
<path d="M11.1678 20.9371H10.0891C9.80923 20.9053 9.52843 20.8803 9.24957 20.8392C7.86002 20.6504 6.52785 20.1565 5.34595 19.392C5.29293 19.3526 5.23106 19.3273 5.16595 19.3182C5.10084 19.3092 5.03453 19.3167 4.97301 19.3402C3.84645 19.7124 2.717 20.0738 1.58852 20.4416C1.52676 20.4617 1.46404 20.4802 1.37624 20.5071C1.77041 19.3182 2.14818 18.1668 2.53415 17.0184C2.58626 16.8639 2.5824 16.7485 2.48253 16.6081C1.66354 15.4301 1.11568 14.0808 0.879298 12.6596C0.808858 12.2454 0.775085 11.8243 0.724426 11.4066V10.3521C0.736488 10.2826 0.749997 10.2137 0.760129 10.1447C0.823332 9.70796 0.859999 9.26435 0.953115 8.83493C1.47321 6.41881 2.70542 4.44483 4.65361 2.96581C7.04519 1.15078 9.73444 0.551156 12.6625 1.17084C15.0218 1.6702 16.9405 2.92228 18.4077 4.85566C19.9911 6.9436 20.6502 9.3206 20.4027 11.9372C20.2025 14.0496 19.3958 15.917 18.0097 17.5129C16.4807 19.2736 14.5731 20.3687 12.291 20.7796C11.9186 20.849 11.5422 20.8862 11.1678 20.9371ZM13.7688 16.5729C14.0887 16.5108 14.369 16.4907 14.6257 16.4017C16.0205 15.917 16.4938 15.2347 16.5343 13.9288C16.5406 13.721 16.4629 13.5835 16.2781 13.4945C15.5491 13.1429 14.8249 12.7809 14.093 12.4347C13.7046 12.2512 13.4832 12.3222 13.2289 12.6694C13.0359 12.9306 12.8502 13.1942 12.6524 13.452C12.3581 13.8339 12.141 13.8877 11.699 13.7053C10.0886 13.0401 8.8829 11.903 7.97683 10.4186C7.75586 10.0572 7.76696 9.95006 8.04968 9.62628C8.22819 9.42184 8.41442 9.22327 8.58039 9.00954C8.73719 8.80852 8.8829 8.58891 8.77 8.31404C8.43227 7.48649 8.08683 6.66042 7.73318 5.83923C7.6888 5.73652 7.58458 5.61425 7.48664 5.58979C6.96896 5.45921 6.42812 5.43035 5.99583 5.78543C5.0309 6.57923 4.72984 7.64741 4.91511 8.86134C5.04538 9.71138 5.44003 10.4563 5.91671 11.1601C6.68238 12.2918 7.54743 13.3326 8.57894 14.2282C9.72624 15.2249 11.0583 15.8578 12.4932 16.2853C12.9216 16.4124 13.3655 16.4834 13.7688 16.5729Z" fill="white"/>
<path d="M13.7689 16.573C13.3656 16.4835 12.9217 16.4126 12.4943 16.285C11.0594 15.8575 9.72733 15.2246 8.58003 14.2278C7.54852 13.3323 6.68346 12.29 5.92021 11.1598C5.44353 10.4559 5.04888 9.71106 4.91861 8.86102C4.73334 7.64709 5.03633 6.57891 5.99933 5.78511C6.43355 5.42856 6.97246 5.45741 7.49014 5.58947C7.58664 5.61392 7.6923 5.7362 7.73668 5.83891C8.09033 6.66009 8.43336 7.48617 8.7735 8.31372C8.8864 8.58859 8.74069 8.80819 8.58389 9.00921C8.41696 9.22295 8.23073 9.42152 8.05318 9.62596C7.77046 9.94974 7.75936 10.0568 7.98033 10.4183C8.8864 11.9027 10.0921 13.0398 11.7025 13.705C12.1445 13.8874 12.3616 13.8336 12.6559 13.4516C12.8537 13.1958 13.0419 12.9322 13.2324 12.6691C13.4867 12.3218 13.7081 12.2509 14.0965 12.4343C14.8284 12.7806 15.5526 13.1425 16.2816 13.4942C16.4664 13.5832 16.5441 13.7206 16.5378 13.9285C16.4973 15.2344 16.024 15.9167 14.6292 16.4014C14.3691 16.4909 14.0888 16.5109 13.7689 16.573Z" fill="#2F383B"/>
</svg>
