<svg xmlns="http://www.w3.org/2000/svg" width="173" height="26" fill="none"><path fill="#fff" d="M10.88 22.297c-2.1 0-3.94-.46-5.52-1.38-1.56-.92-2.79-2.19-3.69-3.81-.88-1.64-1.32-3.53-1.32-5.67s.44-4.02 1.32-5.64c.9-1.64 2.13-2.92 3.69-3.84 1.58-.92 3.42-1.38 5.52-1.38 2.08 0 3.91.46 5.49 1.38 1.58.92 2.81 2.2 3.69 3.84.88 1.62 1.32 3.5 1.32 5.64 0 2-.39 3.79-1.17 5.37-.78 1.56-1.86 2.8-3.24 3.72l4.86 5.22h-4.77l-3.3-3.78c-.92.22-1.88.33-2.88.33Zm0-3.45c2 0 3.59-.66 4.77-1.98 1.2-1.32 1.8-3.13 1.8-5.43s-.6-4.11-1.8-5.43c-1.18-1.32-2.77-1.98-4.77-1.98-2 0-3.6.66-4.8 1.98-1.2 1.32-1.8 3.13-1.8 5.43s.6 4.11 1.8 5.43c1.2 1.32 2.8 1.98 4.8 1.98Zm19.765 3.45c-1.86 0-3.3-.58-4.32-1.74-1-1.16-1.5-2.86-1.5-5.1v-8.4h3.81v8.04c0 1.28.26 2.26.78 2.94.52.68 1.34 1.02 2.46 1.02 1.06 0 1.93-.38 2.61-1.14.7-.76 1.05-1.82 1.05-3.18v-7.68h3.84v14.88h-3.39l-.3-2.52c-.46.88-1.13 1.58-2.01 2.1-.86.52-1.87.78-3.03.78Zm14.892-17.55c-.7 0-1.28-.21-1.74-.63-.44-.42-.66-.95-.66-1.59 0-.64.22-1.16.66-1.56.46-.42 1.04-.63 1.74-.63s1.27.21 1.71.63c.46.4.69.92.69 1.56s-.23 1.17-.69 1.59c-.44.42-1.01.63-1.71.63Zm-1.92 17.19V7.057h3.84v14.88h-3.84Zm15.288.36c-1.52 0-2.86-.33-4.02-.99a7.314 7.314 0 0 1-2.76-2.76c-.66-1.18-.99-2.53-.99-4.05s.33-2.87.99-4.05c.68-1.18 1.6-2.1 2.76-2.76 1.16-.66 2.5-.99 4.02-.99 1.9 0 3.5.5 4.8 1.5 1.3.98 2.13 2.34 2.49 4.08h-4.05c-.2-.72-.6-1.28-1.2-1.68-.58-.42-1.27-.63-2.07-.63-1.06 0-1.96.4-2.7 1.2-.74.8-1.11 1.91-1.11 3.33 0 1.42.37 2.53 1.11 3.33.74.8 1.64 1.2 2.7 1.2.8 0 1.49-.2 2.07-.6.6-.4 1-.97 1.2-1.71h4.05c-.36 1.68-1.19 3.03-2.49 4.05-1.3 1.02-2.9 1.53-4.8 1.53Zm10.848-.36V.337h3.84v12.75l5.28-6.03h4.56l-6.09 6.78 7.08 8.1h-4.8l-6.03-7.47v7.47h-3.84Z"/><path fill="#39C260" d="M87.044 21.938v-21h13.56v3.09h-9.72v5.88h7.86v3.03h-7.86v9h-3.84Zm22.163.36c-1.86 0-3.3-.58-4.32-1.74-1-1.16-1.5-2.86-1.5-5.1v-8.4h3.81v8.04c0 1.28.26 2.26.78 2.94.52.68 1.34 1.02 2.46 1.02 1.06 0 1.93-.38 2.61-1.14.7-.76 1.05-1.82 1.05-3.18v-7.68h3.84v14.88h-3.39l-.3-2.52c-.46.88-1.13 1.58-2.01 2.1-.86.52-1.87.78-3.03.78Zm12.822-.36V7.057h3.39l.3 2.52c.46-.88 1.12-1.58 1.98-2.1.88-.52 1.91-.78 3.09-.78 1.84 0 3.27.58 4.29 1.74 1.02 1.16 1.53 2.86 1.53 5.1v8.4h-3.84v-8.04c0-1.28-.26-2.26-.78-2.94-.52-.68-1.33-1.02-2.43-1.02-1.08 0-1.97.38-2.67 1.14-.68.76-1.02 1.82-1.02 3.18v7.68h-3.84Zm25.242.36c-1.4 0-2.65-.34-3.75-1.02-1.1-.68-1.97-1.61-2.61-2.79-.64-1.18-.96-2.52-.96-4.02 0-1.5.32-2.83.96-3.99.64-1.18 1.51-2.1 2.61-2.76 1.1-.68 2.35-1.02 3.75-1.02 1.12 0 2.1.21 2.94.63a5.3 5.3 0 0 1 2.04 1.77V.338h3.84v21.6h-3.42l-.42-2.13c-.48.66-1.12 1.24-1.92 1.74-.78.5-1.8.75-3.06.75Zm.81-3.36c1.24 0 2.25-.41 3.03-1.23.8-.84 1.2-1.91 1.2-3.21s-.4-2.36-1.2-3.18c-.78-.84-1.79-1.26-3.03-1.26-1.22 0-2.23.41-3.03 1.23-.8.82-1.2 1.88-1.2 3.18 0 1.3.4 2.37 1.2 3.21.8.84 1.81 1.26 3.03 1.26Zm18.221 3.36c-1.32 0-2.48-.21-3.48-.63-1-.44-1.8-1.04-2.4-1.8-.6-.76-.96-1.64-1.08-2.64h3.87c.12.58.44 1.08.96 1.5.54.4 1.23.6 2.07.6.84 0 1.45-.17 1.83-.51.4-.34.6-.73.6-1.17 0-.64-.28-1.07-.84-1.29-.56-.24-1.34-.47-2.34-.69-.64-.14-1.29-.31-1.95-.51-.66-.2-1.27-.45-1.83-.75a4.24 4.24 0 0 1-1.32-1.2c-.34-.5-.51-1.11-.51-1.83 0-1.32.52-2.43 1.56-3.33 1.06-.9 2.54-1.35 4.44-1.35 1.76 0 3.16.41 4.2 1.23 1.06.82 1.69 1.95 1.89 3.39h-3.63c-.22-1.1-1.05-1.65-2.49-1.65-.72 0-1.28.14-1.68.42-.38.28-.57.63-.57 1.05 0 .44.29.79.87 1.05.58.26 1.35.5 2.31.72 1.04.24 1.99.51 2.85.81.88.28 1.58.71 2.1 1.29.52.56.78 1.37.78 2.43.02.92-.22 1.75-.72 2.49-.5.74-1.22 1.32-2.16 1.74-.94.42-2.05.63-3.33.63Z"/></svg>