<svg width="20" height="21" viewBox="0 0 20 21" fill="none" xmlns="http://www.w3.org/2000/svg">
<g clip-path="url(#clip0_96_231)">
<path d="M0.273987 11.0636V9.81581C0.288755 9.68603 0.305971 9.56623 0.32074 9.43147C0.542026 7.26011 1.45666 5.22142 2.92551 3.62541C4.39436 2.02939 6.3371 0.963377 8.45829 0.58946C8.81028 0.529564 9.16718 0.48961 9.52163 0.439697H10.7523C10.8016 0.439697 10.8508 0.46712 10.9001 0.472111C12.4168 0.573794 13.8866 1.0474 15.183 1.8522C16.4094 2.58116 17.4637 3.57354 18.2716 4.75959C19.0796 5.94564 19.6216 7.29661 19.8597 8.71769C19.9262 9.07956 19.9606 9.44895 20.0099 9.81581V11.0636C19.9828 11.3132 19.9557 11.5378 19.9237 11.7773C19.6394 13.8766 18.7063 15.8305 17.2584 17.3586C15.8105 18.8866 13.9223 19.9102 11.8649 20.2825C11.5006 20.3499 11.1265 20.3873 10.7647 20.4372H9.53395C9.2878 20.4072 9.04167 20.3823 8.81029 20.3474C6.74357 20.0557 4.82089 19.1084 3.31759 17.6412C1.8143 16.1739 0.807502 14.262 0.441378 12.1792C0.360151 11.8098 0.323216 11.4355 0.273987 11.0636ZM10.137 16.9408C10.2108 16.8584 10.2748 16.7961 10.329 16.7262C11.0674 15.8278 11.8059 14.9443 12.5098 14.0234C13.3086 13.0036 13.9892 11.8941 14.5381 10.7167C14.89 9.93556 15.1239 9.1345 14.9861 8.26103C14.6784 6.31943 13.6446 4.92935 11.8256 4.25053C10.0066 3.57172 8.33278 3.92363 6.87314 5.20888C5.59565 6.33441 4.65784 8.53552 5.73349 10.7267C6.20966 11.6912 6.7594 12.6166 7.37772 13.4944C8.23097 14.6963 9.15227 15.847 10.137 16.9408Z" fill="white"/>
<path d="M10.1198 16.8736C9.13446 15.7804 8.21313 14.6296 7.36051 13.4271C6.74219 12.5494 6.19243 11.624 5.71625 10.6595C4.63322 8.4683 5.57841 6.26719 6.8559 5.14166C8.31554 3.85641 9.99917 3.50949 11.8083 4.18331C13.6175 4.85713 14.6611 6.25221 14.9688 8.19381C15.1067 9.06728 14.8728 9.87084 14.5209 10.6495C13.972 11.8269 13.2914 12.9364 12.4926 13.9562C11.7911 14.8771 11.0428 15.7605 10.3118 16.659C10.2601 16.7289 10.1961 16.7938 10.1198 16.8736ZM8.39677 9.0473C8.39337 9.41867 8.49873 9.78269 8.69949 10.0933C8.90026 10.404 9.18742 10.6472 9.52461 10.7923C9.86181 10.9374 10.2339 10.9778 10.5937 10.9084C10.9536 10.8389 11.285 10.6629 11.5461 10.4023C11.8071 10.1418 11.9861 9.80866 12.0603 9.44498C12.1345 9.08129 12.1006 8.70344 11.963 8.35929C11.8253 8.01514 11.59 7.72015 11.2868 7.51165C10.9837 7.30316 10.6264 7.19055 10.2601 7.18806C9.77019 7.1854 9.29921 7.37943 8.95006 7.72783C8.6009 8.07623 8.40197 8.55063 8.39677 9.0473Z" fill="black"/>
<path d="M8.286 8.94739C8.286 7.72204 9.18933 6.73624 10.2896 6.74123C11.3899 6.74622 12.276 7.75697 12.2587 9.00229C12.2415 10.2476 11.3456 11.2059 10.2453 11.196C9.14504 11.186 8.28108 10.1703 8.286 8.94739Z" fill="white"/>
</g>
<defs>
<clipPath id="clip0_96_231">
<rect width="19.726" height="20" fill="white" transform="translate(0.273987 0.437256)"/>
</clipPath>
</defs>
</svg>
