<svg width="20" height="21" viewBox="0 0 20 21" fill="none" xmlns="http://www.w3.org/2000/svg">
<g clip-path="url(#clip0_96_224)">
<path d="M0.273941 11.5676V10.3182C0.286054 10.255 0.299033 10.1919 0.30855 10.1288C0.38036 9.65353 0.416702 9.17041 0.529174 8.7057C1.27669 5.61583 3.06673 3.35016 5.87423 1.9385C7.73349 1.00382 9.71388 0.73376 11.7574 1.08624C14.3166 1.52464 16.4034 2.80653 17.9763 4.89597C19.6202 7.0836 20.2569 9.5676 19.9074 12.2918C19.6618 14.2615 18.8225 16.1064 17.5039 17.5746C16.0389 19.2675 14.0449 20.3994 11.8552 20.7811C11.491 20.8486 11.1215 20.8863 10.7538 20.9372H9.52095C9.28043 20.9065 9.03905 20.8811 8.79939 20.8495C6.87307 20.5881 5.06856 19.7466 3.61958 18.4339C1.93515 16.9474 0.807928 14.9178 0.427945 12.6873C0.362192 12.3146 0.324986 11.9394 0.273941 11.5676ZM10.124 15.4843C11.7967 15.4843 13.4722 15.4843 15.1507 15.4843C15.9838 15.4843 16.4934 14.9661 16.4943 14.1226V7.76138C16.4943 6.91789 15.9838 6.40145 15.1489 6.40145H5.13451C4.28836 6.40145 3.78137 6.91614 3.78137 7.77278C3.78137 9.87712 3.79608 11.9876 3.77359 14.0946C3.76493 14.8618 4.29961 15.5054 5.15787 15.4922C6.81122 15.4659 8.46804 15.4843 10.124 15.4843Z" fill="white"/>
<path d="M10.124 15.4845C8.46808 15.4845 6.81126 15.4661 5.15531 15.4924C4.29965 15.5055 3.76498 14.8619 3.77103 14.0947C3.79353 11.9904 3.77795 9.87991 3.77882 7.77294C3.77882 6.9163 4.28581 6.40161 5.13195 6.40161H15.1464C15.9813 6.40161 16.4909 6.91805 16.4917 7.76154V14.1228C16.4917 14.9663 15.9813 15.4836 15.1481 15.4845C13.4743 15.4856 11.7996 15.4856 10.124 15.4845ZM4.80233 7.95795V14.0754C4.80233 14.4113 4.84817 14.4569 5.18213 14.4569H15.0815C15.4276 14.4569 15.4725 14.4148 15.4725 14.0675V7.95795C15.3497 8.05527 15.2658 8.12191 15.1827 8.18943L10.5229 11.9378C10.2452 12.1614 10.0323 12.1614 9.75978 11.943L6.53355 9.34681L4.80233 7.95795ZM14.4707 7.44414H5.85351C5.8587 7.50113 5.89331 7.51691 5.92186 7.54058C7.28538 8.63543 8.64716 9.73202 10.0072 10.8304C10.1206 10.9224 10.1803 10.897 10.2832 10.8172C11.3416 9.96145 12.4017 9.10773 13.4636 8.25606L14.4707 7.44414Z" fill="white"/>
<path d="M4.80232 7.95776L6.53267 9.39748L9.75891 12.084C10.0314 12.3102 10.2443 12.3094 10.522 12.0779C12.0759 10.7861 13.6291 9.49364 15.1818 8.20064L15.4717 7.96127V14.2743C15.4717 14.6338 15.4284 14.6767 15.0806 14.6767C11.7808 14.6767 8.48105 14.6767 5.18127 14.6767C4.84731 14.6767 4.80145 14.6303 4.80145 14.2822V7.95776H4.80232Z" fill="black"/>
<path d="M14.4707 7.44238L13.4636 8.25431C12.4029 9.10774 11.3428 9.96145 10.2832 10.8155C10.1846 10.8953 10.1206 10.9207 10.0072 10.8286C8.64889 9.72793 7.2871 8.63134 5.92185 7.53883C5.8933 7.51516 5.85869 7.49938 5.8535 7.44238H14.4707Z" fill="black"/>
</g>
<defs>
<clipPath id="clip0_96_224">
<rect width="19.726" height="20" fill="white" transform="translate(0.273987 0.937256)"/>
</clipPath>
</defs>
</svg>
