<svg width="20" height="21" viewBox="0 0 20 21" fill="none" xmlns="http://www.w3.org/2000/svg">
<g clip-path="url(#clip0_96_216)">
<path d="M10.1278 0.942465C4.63251 0.960395 0.232852 5.44726 0.275484 11.0406C0.317051 16.5885 4.79132 21.0184 10.2771 20.9414C15.6903 20.8655 20.0122 16.406 20.0004 10.8992C19.9887 5.39242 15.5432 0.920315 10.1278 0.942465Z" fill="white"/>
<path d="M10.1278 0.94243C15.5432 0.925554 19.9887 5.40504 20.0004 10.8992C20.0122 16.3933 15.6903 20.8654 10.2771 20.9414C4.79132 21.0184 0.317051 16.5885 0.275484 11.0405C0.232852 5.44196 4.63251 0.955087 10.1278 0.94243ZM13.2688 16.9492C13.3459 16.9293 13.4203 16.9002 13.4905 16.8627C14.385 16.2998 15.1912 15.6101 15.8832 14.8154C16.1347 14.5222 16.122 14.3524 15.8161 14.1204C15.0118 13.4989 14.1399 12.9682 13.2166 12.5382C12.9128 12.399 12.8148 12.4275 12.5856 12.6796C12.3351 12.9549 12.0921 13.2365 11.8481 13.5234C11.8207 13.5669 11.7774 13.5984 11.7273 13.6114C11.6771 13.6243 11.6238 13.6178 11.5784 13.593C11.0892 13.3631 10.5701 13.1848 10.1172 12.8979C8.86948 12.1183 7.95114 10.916 7.53365 9.51537C7.50869 9.45929 7.50373 9.39648 7.51962 9.33725C7.5355 9.27803 7.57127 9.22589 7.62105 9.18945C7.88537 8.95846 8.15395 8.72537 8.40548 8.48594C8.67939 8.23175 8.70392 8.13998 8.54938 7.79508C8.13112 6.88441 7.61855 6.01911 7.01993 5.21308C6.77799 4.88189 6.60853 4.8629 6.30477 5.13186C5.52171 5.83529 4.84731 6.64874 4.30318 7.54616C4.23672 7.6661 4.21342 7.80482 4.2371 7.93958C4.31033 8.35473 4.41037 8.76481 4.53659 9.1673C5.0322 10.6292 5.87632 11.879 6.88138 13.0192C8.17954 14.4874 9.67167 15.6993 11.4793 16.4724C12.048 16.7191 12.6515 16.8781 13.2688 16.9439V16.9492ZM10.5648 5.75838C13.4063 6.0748 14.9485 7.65059 15.2544 10.5047H16.0463C16.0793 7.26983 13.289 4.84813 10.5691 4.97154L10.5648 5.75838ZM13.9253 10.51C13.9626 8.37308 11.9962 6.95657 10.568 7.12743V7.93747C11.2395 7.94843 11.8794 8.22181 12.3479 8.69795C12.8242 9.18444 13.0945 9.83269 13.1036 10.51H13.9253Z" fill="white"/>
<path d="M13.2683 16.9439C12.6519 16.8743 12.0499 16.7118 11.4831 16.4619C9.67123 15.6888 8.17909 14.4769 6.8852 13.0087C5.87588 11.8685 5.03175 10.6186 4.54042 9.15676C4.41419 8.75427 4.31416 8.34419 4.24093 7.92904C4.21725 7.79428 4.24055 7.65556 4.30701 7.53562C4.85115 6.6382 5.52555 5.82475 6.30861 5.12132C6.61236 4.85236 6.78182 4.87135 7.02376 5.20254C7.62239 6.00858 8.13494 6.87387 8.5532 7.78454C8.70774 8.12944 8.68323 8.22121 8.40931 8.4754C8.15245 8.71483 7.8892 8.94792 7.62488 9.17891C7.5751 9.21535 7.53933 9.26747 7.52345 9.3267C7.50757 9.38593 7.51251 9.44875 7.53748 9.50483C7.95497 10.9054 8.87331 12.1078 10.121 12.8874C10.574 13.1743 11.093 13.3525 11.5822 13.5824C11.6276 13.6072 11.6809 13.6138 11.7311 13.6008C11.7813 13.5879 11.8245 13.5564 11.8519 13.5128C12.096 13.2302 12.339 12.9486 12.5894 12.6691C12.8186 12.417 12.9166 12.3885 13.2204 12.5277C14.1437 12.9576 15.0156 13.4883 15.8199 14.1098C16.1258 14.3419 16.1396 14.5117 15.887 14.8049C15.195 15.5995 14.3888 16.2893 13.4943 16.8521C13.4231 16.8918 13.3472 16.9226 13.2683 16.9439Z" fill="#2F383B"/>
<path d="M10.5644 5.75326V4.96643C13.2843 4.84302 16.0746 7.2647 16.0416 10.4996H15.2497C14.9481 7.64547 13.4058 6.06863 10.5644 5.75326Z" fill="#2F383B"/>
<path d="M13.9249 10.5049H13.1032C13.0941 9.82762 12.8238 9.17937 12.3475 8.69287C11.8789 8.21674 11.2391 7.94336 10.5676 7.93241V7.12236C11.9958 6.95465 13.9622 8.36802 13.9249 10.5049Z" fill="#2F383B"/>
</g>
<defs>
<clipPath id="clip0_96_216">
<rect width="19.726" height="20" fill="white" transform="translate(0.273987 0.937256)"/>
</clipPath>
</defs>
</svg>
